<svg fill="none" height="71" viewBox="0 0 72 71" width="72" xmlns="http://www.w3.org/2000/svg">
    <g clip-path="url(#clip0_1_4220)">
        <path
            d="M24.1153 42.9068H22.9142C22.3224 42.9068 21.8426 42.427 21.8426 41.8351C21.8426 41.2433 22.3224 40.7635 22.9142 40.7635H24.1153C24.593 40.7635 24.9817 40.3749 24.9817 39.8972C24.9817 39.567 24.7982 39.2703 24.503 39.1223L15.9924 34.8629C12.075 32.9022 8.78747 29.8959 6.4851 26.169C4.18273 22.442 2.96588 18.1565 2.96588 13.7759V12.0971C2.96588 10.1606 4.54133 8.58496 6.47802 8.58496H19.1773C19.7692 8.58496 20.249 9.06477 20.249 9.65662C20.249 10.2485 19.7692 10.7283 19.1773 10.7283H6.47789C5.72309 10.7283 5.10906 11.3423 5.10906 12.0971V13.7759C5.10906 17.7584 6.21538 21.6544 8.30849 25.0425C10.4016 28.4308 13.3904 31.1638 16.9518 32.9463L25.4623 37.2057C26.4878 37.7191 27.1249 38.7504 27.1249 39.8971C27.1249 41.5567 25.7749 42.9068 24.1153 42.9068Z"
            fill="#F7A738" />
        <path
            d="M49.0854 42.9068H47.8844C46.2249 42.9068 44.8748 41.5567 44.8748 39.8972C44.8748 38.7504 45.5118 37.7192 46.5373 37.2059L55.048 32.9463C58.6094 31.1638 61.5982 28.4308 63.6913 25.0425C65.7843 21.6544 66.8907 17.7584 66.8907 13.7759V12.0971C66.8907 11.3423 66.2767 10.7283 65.5219 10.7283H52.8226C52.2307 10.7283 51.7509 10.2485 51.7509 9.65662C51.7509 9.06477 52.2307 8.58496 52.8226 8.58496H65.5219C67.4584 8.58496 69.034 10.1604 69.034 12.0971V13.7759C69.034 18.1565 67.817 22.442 65.5148 26.169C63.2124 29.8959 59.9248 32.9022 56.0075 34.8629L47.4969 39.1223C47.2017 39.2701 47.0183 39.5669 47.0183 39.8971C47.0183 40.3748 47.407 40.7633 47.8848 40.7633H49.0858C49.6777 40.7633 50.1575 41.2432 50.1575 41.835C50.157 42.427 49.6772 42.9068 49.0854 42.9068Z"
            fill="#F7A738" />
        <path
            d="M39.6607 47.1636V42.5012H32.3391V47.1636C32.3391 49.2264 31.1761 51.1129 29.3332 52.0395L28.5973 52.4095C27.2056 53.1092 26.3274 54.5338 26.3274 56.0915V61.5499H45.6725V56.0915C45.6725 54.5338 44.7943 53.1092 43.4026 52.4095L42.6667 52.0395C40.8237 51.1129 39.6607 49.2264 39.6607 47.1636Z"
            fill="#FEC93E" />
        <path
            d="M43.4026 52.4095L42.6667 52.0395C40.8237 51.1129 39.6608 49.2264 39.6608 47.1636V42.5012H35.9999V61.5499H45.6725V56.0915C45.6725 54.5338 44.7942 53.1092 43.4026 52.4095Z"
            fill="#EFB635" />
        <path
            d="M35.9999 46.4515C27.1145 42.8949 21.0323 34.5862 20.3272 25.0414L18.6898 2.875H53.3102L51.6727 25.0414C50.9674 34.5862 44.8853 42.8949 35.9999 46.4515Z"
            fill="#FEC93E" />
        <path
            d="M46.4303 2.875L44.7928 25.0414C44.2893 31.8565 41.0441 40.6703 35.9949 46.4494C35.9965 46.4501 35.9982 46.4508 35.9999 46.4515C44.8853 42.8949 50.9674 34.5862 51.6726 25.0414L53.3101 2.875H46.4303Z"
            fill="#EFB635" />
        <path
            d="M54.9299 4.92077H17.0697C16.333 4.92077 15.7357 4.32351 15.7357 3.58675V1.33402C15.7357 0.59726 16.333 0 17.0697 0H54.9299C55.6667 0 56.264 0.59726 56.264 1.33402V3.58661C56.2641 4.32337 55.6667 4.92077 54.9299 4.92077Z"
            fill="#F7A738" />
        <path
            d="M54.9299 2.45079H17.0698C16.3696 2.45079 15.7966 1.91121 15.7411 1.22534C15.7382 1.26126 15.7356 1.29731 15.7356 1.33392V3.58651C15.7356 4.32327 16.3329 4.92053 17.0696 4.92053H54.9298C55.6666 4.92053 56.2638 4.32327 56.2638 3.58651V1.33392C56.2638 1.29731 56.2612 1.26126 56.2583 1.22534C56.2031 1.91121 55.6301 2.45079 54.9299 2.45079Z"
            fill="#EA9632" />
        <path
            d="M52.8944 67.1916H19.1055V61.0697C19.1055 59.0498 20.7429 57.4124 22.7628 57.4124H49.2373C51.2572 57.4124 52.8947 59.0498 52.8947 61.0697V67.1916H52.8944Z"
            fill="#F7A738" />
        <path
            d="M49.2372 57.4124H45.4088V61.7345C45.4088 63.2359 44.1916 64.4531 42.6901 64.4531H19.1055V67.1918H52.8944V64.4531V61.0697C52.8944 59.0498 51.257 57.4124 49.2372 57.4124Z"
            fill="#EA9632" />
        <path
            d="M55.7878 71.0001H16.2119C15.9816 71.0001 15.7948 70.8133 15.7948 70.583V66.8331C15.7948 66.6028 15.9816 66.416 16.2119 66.416H55.7878C56.0181 66.416 56.2049 66.6028 56.2049 66.8331V70.583C56.2049 70.8133 56.0181 71.0001 55.7878 71.0001Z"
            fill="#FEC93E" />
        <path
            d="M40.43 47.7254H31.5699C30.4642 47.7254 29.5679 46.829 29.5679 45.7233V45.0777C29.5679 43.9721 30.4642 43.0757 31.5699 43.0757H40.43C41.5357 43.0757 42.432 43.9721 42.432 45.0777V45.7233C42.432 46.8291 41.5357 47.7254 40.43 47.7254Z"
            fill="#FF8150" />
        <path
            d="M40.43 45.4005H31.5699C30.7645 45.4005 30.0719 44.9238 29.7542 44.238C29.6358 44.4936 29.5679 44.7773 29.5679 45.0776V45.7232C29.5679 46.8288 30.4642 47.7252 31.5699 47.7252H40.43C41.5357 47.7252 42.432 46.8288 42.432 45.7232V45.0776C42.432 44.7773 42.3641 44.4936 42.2457 44.238C41.928 44.9238 41.2354 45.4005 40.43 45.4005Z"
            fill="#FD6E2E" />
        <path
            d="M36.3292 10.2715L38.8099 17.1214L46.0911 17.3639C46.4185 17.3748 46.5532 17.7891 46.2947 17.9904L40.5468 22.4665L42.5661 29.4662C42.6569 29.781 42.3044 30.037 42.0332 29.8534L35.9998 25.7699L29.9666 29.8534C29.6954 30.037 29.3429 29.781 29.4337 29.4662L31.4531 22.4665L25.7051 17.9904C25.4466 17.7892 25.5813 17.3748 25.9087 17.3639L33.1899 17.1214L35.6706 10.2715C35.782 9.96353 36.2177 9.96353 36.3292 10.2715Z"
            fill="#F2EBDA" />
        <path
            d="M55.7878 66.416H48.7192V67.898C48.7192 68.7739 48.0093 69.4839 47.1334 69.4839H16.2119C15.9816 69.4839 15.7948 69.2971 15.7948 69.0667V70.583C15.7948 70.8133 15.9816 71.0001 16.2119 71.0001H55.7878C56.0181 71.0001 56.2049 70.8133 56.2049 70.583V69.0667V66.8331C56.2049 66.6028 56.0181 66.416 55.7878 66.416Z"
            fill="#EFB635" />
    </g>
    <defs>
        <clipPath id="clip0_1_4220">
            <rect fill="white" height="71" transform="translate(0.5)" width="71" />
        </clipPath>
    </defs>
</svg>
