<svg width="24" height="18" viewBox="0 0 24 18" fill="none" xmlns="http://www.w3.org/2000/svg">
<path d="M22.2857 0H1.71429C1.25963 0 0.823593 0.189642 0.502103 0.527208C0.180612 0.864773 0 1.32261 0 1.8V16.2C0 16.6774 0.180612 17.1352 0.502103 17.4728C0.823593 17.8104 1.25963 18 1.71429 18H22.2857C22.7404 18 23.1764 17.8104 23.4979 17.4728C23.8194 17.1352 24 16.6774 24 16.2V1.8C24 1.32261 23.8194 0.864773 23.4979 0.527208C23.1764 0.189642 22.7404 0 22.2857 0ZM22.2857 1.8V4.5H1.71429V1.8H22.2857ZM22.2857 16.2H1.71429V6.3H22.2857V16.2ZM20.5714 13.5C20.5714 13.7387 20.4811 13.9676 20.3204 14.1364C20.1596 14.3052 19.9416 14.4 19.7143 14.4H16.2857C16.0584 14.4 15.8404 14.3052 15.6796 14.1364C15.5189 13.9676 15.4286 13.7387 15.4286 13.5C15.4286 13.2613 15.5189 13.0324 15.6796 12.8636C15.8404 12.6948 16.0584 12.6 16.2857 12.6H19.7143C19.9416 12.6 20.1596 12.6948 20.3204 12.8636C20.4811 13.0324 20.5714 13.2613 20.5714 13.5ZM13.7143 13.5C13.7143 13.7387 13.624 13.9676 13.4632 14.1364C13.3025 14.3052 13.0845 14.4 12.8571 14.4H11.1429C10.9155 14.4 10.6975 14.3052 10.5368 14.1364C10.376 13.9676 10.2857 13.7387 10.2857 13.5C10.2857 13.2613 10.376 13.0324 10.5368 12.8636C10.6975 12.6948 10.9155 12.6 11.1429 12.6H12.8571C13.0845 12.6 13.3025 12.6948 13.4632 12.8636C13.624 13.0324 13.7143 13.2613 13.7143 13.5Z" fill="#5BC2E7"/>
</svg>
