<svg fill="none" height="32" viewBox="0 0 32 32" width="32" xmlns="http://www.w3.org/2000/svg">
    <path
        d="M26.795 20.8077L20.9075 18.169L20.8925 18.1615C20.5866 18.0305 20.2529 17.9779 19.9216 18.0085C19.5902 18.039 19.2718 18.1518 18.995 18.3365C18.9624 18.358 18.9311 18.3814 18.9013 18.4065L15.8588 21.0002C13.9313 20.064 11.9413 18.089 11.005 16.1865L13.6025 13.0977C13.6275 13.0665 13.6513 13.0352 13.6738 13.0015C13.8543 12.7256 13.9638 12.4094 13.9926 12.081C14.0214 11.7525 13.9686 11.4221 13.8388 11.119C13.8383 11.114 13.8383 11.109 13.8388 11.104L11.1925 5.20524C11.0209 4.80932 10.7259 4.4795 10.3515 4.26503C9.97707 4.05056 9.54333 3.96294 9.11501 4.01524C7.42122 4.23812 5.86649 5.06995 4.74118 6.35536C3.61587 7.64076 2.99695 9.29185 3.00001 11.0002C3.00001 20.9252 11.075 29.0002 21 29.0002C22.7084 29.0033 24.3595 28.3844 25.6449 27.2591C26.9303 26.1338 27.7621 24.579 27.985 22.8852C28.0373 22.4569 27.9497 22.0232 27.7352 21.6488C27.5207 21.2743 27.1909 20.9793 26.795 20.8077ZM21 27.0002C16.758 26.9956 12.691 25.3084 9.69142 22.3088C6.69184 19.3092 5.00464 15.2423 5.00001 11.0002C4.99531 9.7796 5.43508 8.59898 6.23718 7.67887C7.03929 6.75876 8.14889 6.16207 9.35876 6.00024C9.35827 6.00522 9.35827 6.01025 9.35876 6.01524L11.9838 11.8902L9.40001 14.9827C9.37379 15.0129 9.34996 15.0451 9.32876 15.079C9.14066 15.3676 9.03031 15.7 9.00841 16.0438C8.98651 16.3876 9.0538 16.7313 9.20376 17.0415C10.3363 19.3577 12.67 21.674 15.0113 22.8052C15.3237 22.9538 15.6694 23.0188 16.0144 22.9938C16.3595 22.9688 16.6922 22.8547 16.98 22.6627C17.0124 22.6411 17.0433 22.6173 17.0725 22.5915L20.1113 20.0002L25.9863 22.6327C25.9863 22.6327 25.9963 22.6327 26 22.6327C25.8399 23.8441 25.244 24.9556 24.3237 25.7595C23.4035 26.5633 22.2219 27.0044 21 27.0002ZM17 8.00024C17 7.73502 17.1054 7.48067 17.2929 7.29313C17.4804 7.10559 17.7348 7.00024 18 7.00024H26C26.2652 7.00024 26.5196 7.10559 26.7071 7.29313C26.8947 7.48067 27 7.73502 27 8.00024C27 8.26545 26.8947 8.51981 26.7071 8.70734C26.5196 8.89488 26.2652 9.00024 26 9.00024H18C17.7348 9.00024 17.4804 8.89488 17.2929 8.70734C17.1054 8.51981 17 8.26545 17 8.00024ZM17 13.0002C17 12.735 17.1054 12.4807 17.2929 12.2931C17.4804 12.1056 17.7348 12.0002 18 12.0002H26C26.2652 12.0002 26.5196 12.1056 26.7071 12.2931C26.8947 12.4807 27 12.735 27 13.0002C27 13.2655 26.8947 13.5198 26.7071 13.7073C26.5196 13.8949 26.2652 14.0002 26 14.0002H18C17.7348 14.0002 17.4804 13.8949 17.2929 13.7073C17.1054 13.5198 17 13.2655 17 13.0002Z"
        fill="#5BC2E7" />
</svg>
