<svg fill="none" height="61" viewBox="0 0 62 61" width="62" xmlns="http://www.w3.org/2000/svg">
    <rect fill="#041E42" height="61" rx="30.5" width="61.3181" x="0.340973" />
    <path
        d="M38.7507 23.035C37.7469 21.9993 36.5529 21.1761 35.2371 20.6124C33.9214 20.0487 32.5097 19.7557 31.0829 19.75H31C28.1068 19.75 25.332 20.924 23.2862 23.0137C21.2403 25.1034 20.091 27.9376 20.091 30.8929V36.8929C20.091 37.5748 20.3562 38.2289 20.8283 38.7111C21.3004 39.1934 21.9408 39.4643 22.6084 39.4643H24.2868C24.9544 39.4643 25.5948 39.1934 26.0669 38.7111C26.539 38.2289 26.8042 37.5748 26.8042 36.8929V32.6071C26.8042 31.9252 26.539 31.2711 26.0669 30.7889C25.5948 30.3066 24.9544 30.0357 24.2868 30.0357H21.8071C21.9689 28.2485 22.6261 26.5454 23.7017 25.1261C24.7773 23.7068 26.2266 22.63 27.8799 22.022C29.5332 21.414 31.3219 21.3 33.0364 21.6933C34.7509 22.0865 36.3201 22.9708 37.5601 24.2425C39.0758 25.7985 40.008 27.849 40.194 30.0357H37.7133C37.0456 30.0357 36.4053 30.3066 35.9332 30.7889C35.461 31.2711 35.1958 31.9252 35.1958 32.6071V36.8929C35.1958 37.5748 35.461 38.2289 35.9332 38.7111C36.4053 39.1934 37.0456 39.4643 37.7133 39.4643H40.2308C40.2308 40.1463 39.9655 40.8003 39.4934 41.2826C39.0213 41.7648 38.381 42.0357 37.7133 42.0357H31.8392C31.6166 42.0357 31.4032 42.126 31.2458 42.2868C31.0884 42.4475 31 42.6655 31 42.8929C31 43.1202 31.0884 43.3382 31.2458 43.4989C31.4032 43.6597 31.6166 43.75 31.8392 43.75H37.7133C38.8261 43.75 39.8933 43.2985 40.6802 42.4947C41.467 41.691 41.9091 40.6009 41.9091 39.4643V30.8929C41.9145 29.4353 41.6384 27.9909 41.0964 26.6425C40.5544 25.2941 39.7573 24.0682 38.7507 23.035ZM24.2868 31.75C24.5093 31.75 24.7228 31.8403 24.8801 32.0011C25.0375 32.1618 25.1259 32.3798 25.1259 32.6071V36.8929C25.1259 37.1202 25.0375 37.3382 24.8801 37.4989C24.7228 37.6597 24.5093 37.75 24.2868 37.75H22.6084C22.3859 37.75 22.1724 37.6597 22.0151 37.4989C21.8577 37.3382 21.7693 37.1202 21.7693 36.8929V31.75H24.2868ZM37.7133 37.75C37.4907 37.75 37.2773 37.6597 37.1199 37.4989C36.9625 37.3382 36.8741 37.1202 36.8741 36.8929V32.6071C36.8741 32.3798 36.9625 32.1618 37.1199 32.0011C37.2773 31.8403 37.4907 31.75 37.7133 31.75H40.2308V37.75H37.7133Z"
        fill="#FAFAFA" />
</svg>
