<svg fill="none" height="40" viewBox="0 0 40 40" width="40" xmlns="http://www.w3.org/2000/svg">
    <g clip-path="url(#clip0_1_8762)">
        <path
            d="M20 0C8.95276 0 0 8.95276 0 20C0 31.0472 8.95276 40 20 40C27.5354 40 34.0945 35.8346 37.5039 29.6772C38.7795 27.378 39.6142 24.7953 39.8976 22.0472C39.9606 21.378 40 20.6929 40 20C40 8.95276 31.0472 0 20 0Z"
            fill="#D75050" />
        <path
            d="M19.9994 34.7242C28.1315 34.7242 34.7238 28.1319 34.7238 19.9998C34.7238 11.8677 28.1315 5.27539 19.9994 5.27539C11.8673 5.27539 5.27499 11.8677 5.27499 19.9998C5.27499 28.1319 11.8673 34.7242 19.9994 34.7242Z"
            fill="#FAFAFA" />
        <path
            d="M19.9993 29.441C25.2134 29.441 29.4402 25.2141 29.4402 20C29.4402 14.7859 25.2134 10.5591 19.9993 10.5591C14.7852 10.5591 10.5583 14.7859 10.5583 20C10.5583 25.2141 14.7852 29.441 19.9993 29.441Z"
            fill="#D75050" />
        <path
            d="M19.9987 24.1657C22.2992 24.1657 24.1641 22.3008 24.1641 20.0003C24.1641 17.6999 22.2992 15.835 19.9987 15.835C17.6982 15.835 15.8333 17.6999 15.8333 20.0003C15.8333 22.3008 17.6982 24.1657 19.9987 24.1657Z"
            fill="#FAFAFA" />
        <path d="M39.8964 22.0473C39.6129 24.7954 38.7783 27.378 37.5027 29.6773L32.2193 28.0395L31.6523 24.63L19.8649 20.9686C19.3846 20.819 19.1169 20.3072 19.2665 19.8347C19.4161 19.3544 19.9279 19.0867 20.4004 19.2363L32.1878 22.9056L34.5893 20.4095L39.8964 22.0473Z"
            fill="#041E42"
            opacity="0.2" />
        <path d="M35.285 4.6378L29.3401 10.7323L27.7417 6.10236L33.6866 0L35.285 4.6378Z"
            fill="#5BC2E7" />
        <path d="M34.0188 12.213L39.9637 6.11062L35.2866 4.63818L29.3417 10.7327L34.0188 12.213Z"
            fill="#5BC2E7" />
        <path
            d="M38.0472 3.22814L20.9764 20.7478C20.5905 21.1415 19.9606 21.1494 19.5669 20.7636C19.1732 20.3778 19.1654 19.7478 19.5512 19.3541L36.622 1.83444C37.0079 1.44074 37.6378 1.43287 38.0315 1.8187C38.4173 2.20452 38.4252 2.83444 38.0472 3.22814Z"
            fill="#041E42" />
    </g>
    <defs>
        <clipPath id="clip0_1_8762">
            <rect fill="white" height="40" width="40" />
        </clipPath>
    </defs>
</svg>
