<svg fill="none" height="25" viewBox="0 0 25 25" width="25" xmlns="http://www.w3.org/2000/svg">
    <path
        d="M22.2656 14.0625V20.3125C22.2656 20.6233 22.1422 20.9214 21.9224 21.1411C21.7026 21.3609 21.4046 21.4844 21.0938 21.4844H3.90625C3.59545 21.4844 3.29738 21.3609 3.07761 21.1411C2.85784 20.9214 2.73438 20.6233 2.73438 20.3125V14.0625C2.73438 13.7517 2.85784 13.4536 3.07761 13.2339C3.29738 13.0141 3.59545 12.8906 3.90625 12.8906C4.21705 12.8906 4.51512 13.0141 4.73489 13.2339C4.95466 13.4536 5.07812 13.7517 5.07812 14.0625V19.1406H19.9219V14.0625C19.9219 13.7517 20.0453 13.4536 20.2651 13.2339C20.4849 13.0141 20.7829 12.8906 21.0938 12.8906C21.4046 12.8906 21.7026 13.0141 21.9224 13.2339C22.1422 13.4536 22.2656 13.7517 22.2656 14.0625ZM11.6709 14.8916C11.7798 15.0009 11.9091 15.0875 12.0516 15.1467C12.194 15.2058 12.3467 15.2363 12.501 15.2363C12.6552 15.2363 12.8079 15.2058 12.9504 15.1467C13.0928 15.0875 13.2222 15.0009 13.3311 14.8916L17.2373 10.9854C17.4575 10.7652 17.5811 10.4666 17.5811 10.1553C17.5811 9.84393 17.4575 9.54535 17.2373 9.3252C17.0172 9.10504 16.7186 8.98137 16.4072 8.98137C16.0959 8.98137 15.7973 9.10504 15.5771 9.3252L13.6719 11.2305V3.125C13.6719 2.8142 13.5484 2.51613 13.3286 2.29636C13.1089 2.07659 12.8108 1.95312 12.5 1.95312C12.1892 1.95312 11.8911 2.07659 11.6714 2.29636C11.4516 2.51613 11.3281 2.8142 11.3281 3.125V11.2305L9.42285 9.32715C9.31384 9.21814 9.18443 9.13167 9.04201 9.07268C8.89958 9.01368 8.74693 8.98332 8.59277 8.98332C8.28143 8.98332 7.98285 9.107 7.7627 9.32715C7.65369 9.43616 7.56722 9.56557 7.50822 9.70799C7.44923 9.85042 7.41887 10.0031 7.41887 10.1572C7.41887 10.4686 7.54254 10.7672 7.7627 10.9873L11.6709 14.8916Z"
        fill="#041E42" />
</svg>
