<svg fill="none" height="66" viewBox="0 0 65 66" width="65" xmlns="http://www.w3.org/2000/svg">
    <rect fill="#041E42" height="65.4615" rx="31.75" width="63.5" x="0.75" />
    <path
        d="M43.5769 23.5H21.4231C21.1783 23.5 20.9435 23.5973 20.7704 23.7704C20.5973 23.9435 20.5 24.1783 20.5 24.4231V40.1154C20.5 40.605 20.6945 41.0746 21.0407 41.4208C21.3869 41.767 21.8565 41.9615 22.3462 41.9615H42.6538C43.1435 41.9615 43.6131 41.767 43.9593 41.4208C44.3055 41.0746 44.5 40.605 44.5 40.1154V24.4231C44.5 24.1783 44.4027 23.9435 44.2296 23.7704C44.0565 23.5973 43.8217 23.5 43.5769 23.5ZM41.2035 25.3462L32.5 33.325L23.7965 25.3462H41.2035ZM42.6538 40.1154H22.3462V26.5219L31.8758 35.2577C32.0461 35.414 32.2688 35.5008 32.5 35.5008C32.7312 35.5008 32.9539 35.414 33.1242 35.2577L42.6538 26.5219V40.1154Z"
        fill="#FAFAFA" />
</svg>
