<svg fill="none" height="171" viewBox="0 0 237 171" width="237" xmlns="http://www.w3.org/2000/svg">
    <path
        d="M228.859 54.5008C226.956 34.0085 192.714 34.378 192.714 34.378C192.714 34.378 164.206 64.7256 157.511 64.4067C150.817 64.0877 176.797 33.7194 176.797 33.7194C164.315 30.299 129.254 40.1857 129.254 40.1857C129.254 40.1857 124.319 80.4967 117.909 78.5467C111.499 76.5967 124.108 43.0733 124.108 43.0733C111.182 44.6152 97.2209 56.9009 97.2209 56.9009C78.8255 77.6571 106.546 100.105 106.546 100.105C106.546 100.105 104.534 114.038 93.1536 128.448C93.1536 128.448 90.7015 131.048 87.856 135.697L91.2043 136.278C91.6227 135.449 92.077 134.638 92.566 133.849C92.5687 133.842 92.5699 133.839 92.5761 133.834C92.5847 133.822 92.589 133.812 92.5976 133.8C92.9157 133.326 93.3767 132.648 93.9432 131.828L93.9448 131.825L93.946 131.821C95.317 130.002 96.2683 128.65 96.8888 127.664L96.8927 127.654C101.054 121.923 106.895 114.532 110.14 113.332C110.14 113.332 109.86 112.749 109.689 111.679C109.834 112.206 109.981 112.757 110.14 113.332C113.735 126.557 142.046 133.561 158.588 133.065C175.129 132.569 168.952 126.878 161.623 118.11C154.294 109.341 135.94 108.139 131.117 104.362C126.294 100.586 134.571 99.0807 145.079 101.739C155.582 104.4 159.057 115.922 175.97 120.533C192.884 125.144 211.619 95.2012 211.619 95.2012C199.101 96.8152 178.945 86.5993 178.838 82.3822C178.732 78.162 210.195 84.0323 215.32 83.6601C220.454 83.2878 230.762 74.9936 228.859 54.5008Z"
        fill="url(#paint0_linear_1_5703)" />
    <path
        d="M9.9165 20.1073C18.7595 3.38573 47.619 15.7049 47.619 15.7049C47.619 15.7049 61.0444 51.4515 66.8245 53.5282C72.6049 55.6049 61.3267 20.7265 61.3267 20.7265C73.1009 22.2004 99.2946 42.8824 99.2946 42.8824C99.2946 42.8824 89.2473 78.8189 95.3626 79.4119C101.477 80.0048 102.633 47.1374 102.633 47.1374C113.032 52.9778 120.516 68.2978 120.516 68.2978C128.765 92.3603 97.3745 101.689 97.3745 101.689C97.3745 101.689 94.161 114.218 98.7105 130.436C98.7105 130.436 99.8693 133.502 100.637 138.444L97.5979 137.763C97.5361 136.913 97.4375 136.066 97.3023 135.225C97.3023 135.218 97.3023 135.215 97.2992 135.208C97.2957 135.195 97.2957 135.185 97.2925 135.172C97.1906 134.658 97.0397 133.921 96.8491 133.027V133.02C96.3309 130.996 96.0024 129.515 95.8252 128.461V128.451C94.3253 122.129 91.988 113.809 89.664 111.653C89.664 111.653 90.107 111.257 90.6292 110.409C90.3207 110.805 90.002 111.221 89.664 111.653C81.9536 121.615 55.5133 117.632 41.6841 111.411C27.8553 105.191 35.0929 102.528 44.3922 97.6571C53.6915 92.786 69.6541 98.2008 75.07 96.6873C80.4863 95.1739 74.01 90.9942 64.1755 89.566C54.3447 88.1413 47.3368 96.7002 31.3906 94.6825C15.4441 92.6648 10.1498 60.6886 10.1498 60.6886C20.1774 66.447 40.8471 64.8452 42.4262 61.3042C44.0049 57.7602 15.2967 51.7102 11.0883 49.5976C6.87358 47.4814 1.07352 36.8293 9.9165 20.1073Z"
        fill="url(#paint1_linear_1_5703)" />
    <path clip-rule="evenodd" d="M34.9835 27.5054C34.9835 24.158 37.6952 21.4443 41.0402 21.4443H57.8711C60.7089 21.4443 63.1662 23.4161 63.783 26.188L69.6029 52.3424C70.3299 55.6098 68.2725 58.8483 65.0074 59.5759C61.7423 60.3035 58.5061 58.2446 57.779 54.9772L53.0147 33.5664H41.0402C37.6952 33.5664 34.9835 30.8528 34.9835 27.5054Z"
        fill="#CCCBCB"
        fill-rule="evenodd" />
    <path clip-rule="evenodd" d="M78.7408 125.098L63.2305 53.9443H174.654C180.261 53.9443 184.434 59.0315 183.263 64.4308L170.041 125.098C169.17 129.093 165.587 131.944 161.433 131.944H87.3409C83.1947 131.944 79.6121 129.093 78.7408 125.098Z"
        fill="#CCCBCB"
        fill-rule="evenodd" />
    <path clip-rule="evenodd" d="M58.7752 49.6975C59.9205 48.2726 61.6459 47.4443 63.4692 47.4443H174.448C183.846 47.4443 190.898 56.1194 188.921 65.3794L188.92 65.386L175.751 126.738L175.751 126.739C174.28 133.588 168.239 138.444 161.279 138.444H87.4834C80.5282 138.444 74.4908 133.585 73.0204 126.739L73.0202 126.738L57.5719 54.7814C57.1876 52.9912 57.6299 51.1224 58.7752 49.6975ZM70.9417 59.5637L84.8147 124.183C84.8148 124.183 84.8148 124.183 84.8148 124.183C85.0802 125.418 86.1794 126.325 87.4834 126.325H161.279C162.595 126.325 163.691 125.414 163.956 124.183C163.956 124.183 163.956 124.183 163.956 124.183L177.124 62.8383C177.124 62.8363 177.125 62.8343 177.125 62.8323C177.475 61.1739 176.217 59.5637 174.448 59.5637H70.9417Z"
        fill="#CCCBCB"
        fill-rule="evenodd" />
    <path clip-rule="evenodd" d="M77.7162 159.047C77.682 152.419 83.134 147.111 89.7664 147.111C96.4303 147.111 101.85 152.434 101.85 159.028C101.85 165.608 96.4435 170.944 89.7774 170.944C83.1376 170.944 77.7147 165.637 77.7162 159.047ZM93.3807 159.028C93.3808 159.022 93.3809 159.015 93.3809 159.009C93.3807 158.99 93.3803 158.972 93.3798 158.953C93.329 157.01 91.718 155.482 89.7774 155.482C89.7738 155.482 89.7701 155.482 89.7664 155.482C87.7892 155.488 86.1888 157.068 86.1855 159.022C86.1854 159.024 86.1854 159.026 86.1854 159.028C86.1854 159.029 86.1854 159.03 86.1854 159.031C86.1871 161.003 87.8072 162.574 89.7664 162.574C89.7701 162.574 89.7738 162.574 89.7774 162.574C91.7057 162.568 93.339 161.04 93.3801 159.065C93.3804 159.053 93.3806 159.04 93.3807 159.028ZM145.554 159.065C145.51 152.429 150.966 147.111 157.604 147.111C164.276 147.111 169.667 152.433 169.7 158.99L169.7 159.028C169.7 165.608 164.293 170.944 157.627 170.944C150.973 170.944 145.575 165.628 145.554 159.065ZM161.219 158.991C161.219 158.978 161.219 158.965 161.218 158.953C161.178 157.028 159.587 155.482 157.627 155.482C157.619 155.482 157.612 155.482 157.604 155.482C155.632 155.494 154.038 157.072 154.035 159.022C154.035 159.024 154.035 159.026 154.035 159.028H161.219C161.219 159.015 161.219 159.003 161.219 158.991ZM161.219 159.031L154.035 159.065C154.044 161.002 155.637 162.574 157.604 162.574C157.612 162.574 157.619 162.574 157.627 162.574C159.561 162.562 161.196 161.019 161.219 159.031Z"
        fill="#CCCBCB"
        fill-rule="evenodd" />
    <path clip-rule="evenodd" d="M210.259 114.611C201.86 114.611 195.049 107.82 195.049 99.4445C195.049 91.0686 201.86 84.2778 210.259 84.2778C218.659 84.2778 225.469 91.0686 225.469 99.4445C225.469 107.82 218.659 114.611 210.259 114.611Z"
        fill="#5BC2E7"
        fill-rule="evenodd" />
    <path clip-rule="evenodd" d="M216.422 96.2212C216.906 96.7289 216.895 97.5415 216.398 98.0361L210.274 104.136C209.786 104.621 209.01 104.621 208.522 104.136L204.845 100.477C204.348 99.9827 204.337 99.1701 204.821 98.6621C205.304 98.1542 206.099 98.1432 206.596 98.6376L209.397 101.425L214.646 96.1974C215.143 95.7027 215.938 95.7134 216.422 96.2212Z"
        fill="white"
        fill-rule="evenodd" />
    <path clip-rule="evenodd" d="M220.761 64.7777C212.162 64.7777 205.189 57.8253 205.189 49.2499C205.189 40.6746 212.162 33.7222 220.761 33.7222C229.361 33.7222 236.333 40.6746 236.333 49.2499C236.333 57.8253 229.361 64.7777 220.761 64.7777Z"
        fill="#5BC2E7"
        fill-rule="evenodd" />
    <path clip-rule="evenodd" d="M227.236 45.6194C227.754 46.0966 227.78 46.8961 227.295 47.4051L220.754 54.2673C220.511 54.5221 220.172 54.6667 219.817 54.6667C219.462 54.6668 219.122 54.5223 218.879 54.2677L214.953 50.1509C214.467 49.642 214.493 48.8425 215.011 48.3651C215.528 47.8878 216.341 47.9134 216.827 48.4223L219.816 51.5563L225.42 45.6772C225.905 45.1682 226.718 45.1423 227.236 45.6194Z"
        fill="white"
        fill-rule="evenodd" />
    <path clip-rule="evenodd" d="M20.8601 79.2222C12.2607 79.2222 5.28809 72.4311 5.28809 64.0556C5.28809 55.6797 12.2607 48.8889 20.8601 48.8889C29.4599 48.8889 36.4321 55.6797 36.4321 64.0556C36.4321 72.4311 29.4599 79.2222 20.8601 79.2222Z"
        fill="#5BC2E7"
        fill-rule="evenodd" />
    <path clip-rule="evenodd" d="M26.6468 60.7955C27.1335 61.2697 27.1406 62.0457 26.6627 62.5286L20.5123 68.7441C20.2802 68.9787 19.9627 69.1109 19.6314 69.111C19.3 69.1111 18.9825 68.979 18.7503 68.7444L15.0579 65.0157C14.5798 64.533 14.5866 63.757 15.0731 63.2826C15.5596 62.8081 16.3415 62.8149 16.8196 63.2977L19.6308 66.1365L24.9003 60.8112C25.3782 60.3283 26.1601 60.3212 26.6468 60.7955Z"
        fill="white"
        fill-rule="evenodd" />
    <path
        d="M153.023 74.1667H93.6689C91.2588 74.1667 89.3046 76.1228 89.3046 78.5358V80.2832C89.3046 82.6962 91.2588 84.6522 93.6689 84.6522H153.023C155.433 84.6522 157.387 82.6962 157.387 80.2832V78.5358C157.387 76.1228 155.433 74.1667 153.023 74.1667ZM153.023 99.0702H93.6689C91.2588 99.0702 89.3046 101.026 89.3046 103.439V105.187C89.3046 107.599 91.2588 109.556 93.6689 109.556H153.023C155.433 109.556 157.387 107.599 157.387 105.187V103.439C157.387 101.026 155.433 99.0702 153.023 99.0702Z"
        fill="white" />
    <path
        d="M136.534 25.8782C144.253 16.3086 140.579 0.500876 140.579 0.500876C140.579 0.500876 124.391 0.218468 116.679 9.79514C108.96 19.3651 112.628 35.1658 112.628 35.1658C112.628 35.1658 128.815 35.4478 136.534 25.8782Z"
        fill="url(#paint2_linear_1_5703)" />
    <path
        d="M231.802 73.1796H231.735C231.342 78.5472 227.202 78.6298 227.202 78.6298C227.202 78.6298 231.768 78.7156 231.768 84.9179C231.768 78.7156 236.333 78.6298 236.333 78.6298C236.333 78.6298 232.195 78.5472 231.802 73.1796ZM100.047 21.4443H99.9803C99.5874 26.8119 95.447 26.8945 95.447 26.8945C95.447 26.8945 100.013 26.9803 100.013 33.1826C100.013 26.9803 104.579 26.8945 104.579 26.8945C104.579 26.8945 100.44 26.8119 100.047 21.4443ZM4.81805 33.1826H4.75145C4.35849 38.5501 0.21814 38.6328 0.21814 38.6328C0.21814 38.6328 4.78397 38.7186 4.78397 44.9208C4.78397 38.7186 9.34979 38.6328 9.34979 38.6328C9.34979 38.6328 5.21101 38.5501 4.81805 33.1826ZM192.974 125.194C190.36 125.963 186.875 127.51 184.998 130.33C183.122 133.15 185.601 133.827 188.794 133.141C191.988 132.454 195.089 130.474 196.253 127.852C197.417 125.229 195.12 124.563 192.974 125.194Z"
        fill="#BDE7F5" />
    <path clip-rule="evenodd" d="M43.4527 127.806H44.6024C44.8807 127.806 45.1045 128.025 45.1045 128.293V129.407C45.1045 129.677 44.8783 129.894 44.6024 129.894H43.4527C43.3197 129.894 43.1921 129.843 43.098 129.751C43.0039 129.66 42.9509 129.537 42.9507 129.407V128.293C42.9507 128.229 42.9637 128.165 42.9889 128.106C43.0141 128.047 43.0511 127.994 43.0977 127.948C43.1444 127.903 43.1997 127.867 43.2606 127.843C43.3215 127.818 43.3868 127.806 43.4527 127.806ZM47.4395 127.806H48.5896C48.8651 127.806 49.0913 128.025 49.0913 128.293V129.407C49.0913 129.677 48.8651 129.894 48.5896 129.894H47.4395C47.3066 129.894 47.1792 129.842 47.0852 129.751C46.9912 129.66 46.9381 129.536 46.9375 129.407V128.293C46.9375 128.025 47.164 127.806 47.4395 127.806ZM51.4291 127.806H52.5792C52.8547 127.806 53.0809 128.025 53.0809 128.293V129.407C53.0809 129.677 52.8547 129.894 52.5792 129.894H51.4291C51.2961 129.894 51.1685 129.843 51.0744 129.751C50.9803 129.66 50.9273 129.537 50.9271 129.407V128.293C50.9271 128.229 50.9401 128.165 50.9653 128.106C50.9905 128.047 51.0275 127.994 51.0741 127.948C51.1207 127.903 51.1761 127.867 51.237 127.843C51.2979 127.818 51.3632 127.806 51.4291 127.806ZM55.4163 127.806H56.5664C56.8419 127.806 57.0685 128.025 57.0685 128.293V129.407C57.0685 129.677 56.8419 129.894 56.5664 129.894H55.4163C55.2831 129.894 55.1552 129.843 55.0606 129.752C54.9663 129.661 54.913 129.537 54.9123 129.407V128.293C54.9135 128.163 54.9671 128.04 55.0614 127.949C55.1557 127.858 55.2832 127.806 55.4163 127.806ZM59.4035 127.806H60.5536C60.8315 127.806 61.0577 128.025 61.0577 128.293V129.407C61.0577 129.677 60.8315 129.894 60.5536 129.894H59.4035C59.2704 129.894 59.1429 129.843 59.0488 129.751C58.9547 129.66 58.9017 129.537 58.9015 129.407V128.293C58.9015 128.025 59.1276 127.806 59.4035 127.806ZM47.5859 132.021H48.736C49.0115 132.021 49.2377 132.24 49.2377 132.508V133.625C49.2377 133.892 49.0115 134.111 48.736 134.111H47.5859C47.52 134.111 47.4547 134.099 47.3937 134.074C47.3328 134.05 47.2774 134.014 47.2308 133.969C47.1842 133.924 47.1472 133.87 47.122 133.811C47.0968 133.752 47.0838 133.689 47.0838 133.625V132.51C47.0835 132.38 47.136 132.256 47.2298 132.164C47.2764 132.119 47.3319 132.082 47.393 132.058C47.4541 132.033 47.5197 132.021 47.5859 132.021ZM51.5731 132.021H52.7228C52.9987 132.021 53.2248 132.24 53.2248 132.508V133.625C53.2248 133.892 52.9987 134.111 52.7228 134.111H51.5731C51.4402 134.111 51.3128 134.059 51.2188 133.968C51.1248 133.877 51.0717 133.754 51.071 133.625V132.51C51.0707 132.38 51.1232 132.256 51.217 132.164C51.2636 132.119 51.3191 132.082 51.3802 132.058C51.4413 132.033 51.5069 132.021 51.5731 132.021ZM55.5603 132.021H56.71C56.9883 132.021 57.2144 132.24 57.2144 132.508V133.625C57.2144 133.892 56.9883 134.111 56.71 134.111H55.5603C55.4274 134.111 55.3 134.059 55.206 133.968C55.112 133.877 55.0589 133.754 55.0582 133.625V132.51C55.0582 132.24 55.2844 132.021 55.5603 132.021ZM51.4291 123.278H52.5792C52.8547 123.278 53.0809 123.497 53.0809 123.765V124.88C53.0809 125.149 52.8547 125.366 52.5792 125.366H51.4291C51.2962 125.365 51.1689 125.314 51.0749 125.223C50.9808 125.132 50.9277 125.008 50.9271 124.88V123.765C50.9271 123.701 50.9401 123.637 50.9653 123.578C50.9905 123.519 51.0275 123.466 51.0741 123.42C51.1207 123.375 51.1761 123.339 51.237 123.315C51.2979 123.29 51.3632 123.278 51.4291 123.278ZM55.4163 123.278H56.5664C56.8419 123.278 57.0685 123.497 57.0685 123.765V124.88C57.0685 125.149 56.8419 125.366 56.5664 125.366H55.4163C55.2831 125.366 55.1552 125.315 55.0608 125.224C54.9663 125.132 54.9129 125.009 54.9123 124.88V123.765C54.9135 123.636 54.9671 123.512 55.0614 123.421C55.1557 123.33 55.2832 123.279 55.4163 123.278Z"
        fill="#5BC2E7"
        fill-rule="evenodd" />
    <defs>
        <linearGradient gradientUnits="userSpaceOnUse" id="paint0_linear_1_5703" x1="92.8141" x2="237.133"
            y1="221.731" y2="-115.379">
            <stop stop-color="white" />
            <stop offset="1" stop-color="#EEEEEE" />
        </linearGradient>
        <linearGradient gradientUnits="userSpaceOnUse" id="paint1_linear_1_5703" x1="66.0788" x2="61.8067"
            y1="209.71" y2="-126.934">
            <stop stop-color="white" />
            <stop offset="1" stop-color="#EEEEEE" />
        </linearGradient>
        <linearGradient gradientUnits="userSpaceOnUse" id="paint2_linear_1_5703" x1="162.335" x2="72.4108"
            y1="-11.7274" y2="61.2016">
            <stop stop-color="white" />
            <stop offset="1" stop-color="#EEEEEE" />
        </linearGradient>
    </defs>
</svg>
