<svg fill="none" height="57" viewBox="0 0 57 57" width="57" xmlns="http://www.w3.org/2000/svg">
    <path
        d="M28.5 5.90186C24.0005 5.90186 19.602 7.23612 15.8608 9.73592C12.1196 12.2357 9.20364 15.7888 7.48175 19.9458C5.75986 24.1028 5.30933 28.6771 6.18715 33.0902C7.06496 37.5032 9.23169 41.5569 12.4133 44.7385C15.595 47.9202 19.6486 50.0869 24.0617 50.9647C28.4748 51.8425 33.049 51.392 37.2061 49.6701C41.3631 47.9482 44.9161 45.0323 47.4159 41.2911C49.9157 37.5499 51.25 33.1514 51.25 28.6519C51.2436 22.6201 48.8447 16.8373 44.5797 12.5722C40.3146 8.30714 34.5317 5.90823 28.5 5.90186ZM36.7381 34.4137C36.9007 34.5763 37.0297 34.7693 37.1177 34.9818C37.2057 35.1942 37.251 35.4219 37.251 35.6519C37.251 35.8818 37.2057 36.1095 37.1177 36.3219C37.0297 36.5344 36.9007 36.7274 36.7381 36.89C36.5755 37.0526 36.3825 37.1815 36.1701 37.2695C35.9576 37.3575 35.7299 37.4028 35.5 37.4028C35.2701 37.4028 35.0424 37.3575 34.8299 37.2695C34.6175 37.1815 34.4245 37.0526 34.2619 36.89L28.5 31.1259L22.7381 36.89C22.5755 37.0526 22.3825 37.1815 22.1701 37.2695C21.9576 37.3575 21.7299 37.4028 21.5 37.4028C21.2701 37.4028 21.0424 37.3575 20.8299 37.2695C20.6175 37.1815 20.4245 37.0526 20.2619 36.89C20.0993 36.7274 19.9703 36.5344 19.8823 36.3219C19.7943 36.1095 19.749 35.8818 19.749 35.6519C19.749 35.4219 19.7943 35.1942 19.8823 34.9818C19.9703 34.7693 20.0993 34.5763 20.2619 34.4137L26.0259 28.6519L20.2619 22.89C19.9335 22.5616 19.749 22.1162 19.749 21.6519C19.749 21.1875 19.9335 20.7421 20.2619 20.4137C20.5903 20.0854 21.0356 19.9009 21.5 19.9009C21.9644 19.9009 22.4098 20.0854 22.7381 20.4137L28.5 26.1778L34.2619 20.4137C34.4245 20.2511 34.6175 20.1222 34.8299 20.0342C35.0424 19.9462 35.2701 19.9009 35.5 19.9009C35.7299 19.9009 35.9576 19.9462 36.1701 20.0342C36.3825 20.1222 36.5755 20.2511 36.7381 20.4137C36.9007 20.5763 37.0297 20.7693 37.1177 20.9818C37.2057 21.1942 37.251 21.4219 37.251 21.6519C37.251 21.8818 37.2057 22.1095 37.1177 22.3219C37.0297 22.5344 36.9007 22.7274 36.7381 22.89L30.9741 28.6519L36.7381 34.4137Z"
        fill="#A72626" />
</svg>
