<svg fill="none" height="24" viewBox="0 0 25 24" width="25" xmlns="http://www.w3.org/2000/svg">
    <path
        d="M8.41594 5.15626C8.9175 4.53189 9.04125 4.11001 8.98969 3.92439C8.95031 3.7847 8.76375 3.71251 8.76188 3.71251C8.59211 3.65672 8.44784 3.54214 8.35505 3.38942C8.26226 3.23669 8.22706 3.05585 8.25578 2.87947C8.2845 2.70309 8.37525 2.54276 8.51169 2.42736C8.64814 2.31196 8.8213 2.24906 9 2.25001C9.07564 2.2501 9.15084 2.26147 9.22312 2.28376C9.31687 2.31282 10.1522 2.59595 10.4222 3.48001C10.6528 4.23657 10.3706 5.11595 9.58406 6.0947C9.0825 6.71907 8.95875 7.14095 9.01031 7.32657C9.04969 7.46626 9.2325 7.53657 9.23438 7.53751C9.40383 7.59321 9.54789 7.70748 9.64069 7.85981C9.73349 8.01214 9.76896 8.19256 9.74074 8.36869C9.71251 8.54482 9.62244 8.70512 9.48668 8.82082C9.35092 8.93652 9.17837 9.00006 9 9.00001C8.92436 8.99992 8.84916 8.98855 8.77688 8.96626C8.68313 8.9372 7.84781 8.65407 7.57781 7.77001C7.34719 7.01345 7.62937 6.13407 8.41594 5.15626ZM11.3278 7.77095C11.5978 8.65501 12.4331 8.93814 12.5269 8.9672C12.5992 8.98917 12.6744 9.00023 12.75 9.00001C12.9284 9.00006 13.1009 8.93652 13.2367 8.82082C13.3724 8.70512 13.4625 8.54482 13.4907 8.36869C13.519 8.19256 13.4835 8.01214 13.3907 7.85981C13.2979 7.70748 13.1538 7.59321 12.9844 7.53751C12.9844 7.53751 12.7969 7.46626 12.7603 7.32657C12.7087 7.13907 12.8325 6.71907 13.3341 6.0947C14.1206 5.11595 14.4028 4.23657 14.1722 3.48001C13.9022 2.59595 13.0678 2.31282 12.9731 2.28376C12.9008 2.26147 12.8256 2.2501 12.75 2.25001C12.5718 2.24975 12.3993 2.31294 12.2635 2.42827C12.1276 2.5436 12.0373 2.70353 12.0087 2.87941C11.98 3.05528 12.0149 3.23562 12.1071 3.3881C12.1993 3.54059 12.3428 3.65526 12.5119 3.71157C12.5119 3.71157 12.6994 3.78376 12.7397 3.92345C12.7913 4.11095 12.6675 4.53095 12.1659 5.15532C11.3794 6.13407 11.0972 7.01345 11.3278 7.77001V7.77095ZM15.0778 7.77095C15.3478 8.65501 16.1831 8.93814 16.2769 8.9672C16.3492 8.98917 16.4244 9.00023 16.5 9.00001C16.6784 9.00006 16.8509 8.93652 16.9867 8.82082C17.1224 8.70512 17.2125 8.54482 17.2407 8.36869C17.269 8.19256 17.2335 8.01214 17.1407 7.85981C17.0479 7.70748 16.9038 7.59321 16.7344 7.53751C16.7344 7.53751 16.5469 7.46626 16.5103 7.32657C16.4587 7.13907 16.5825 6.71907 17.0841 6.0947C17.8706 5.11595 18.1528 4.23657 17.9222 3.48001C17.6522 2.59595 16.8178 2.31282 16.7231 2.28376C16.6508 2.26147 16.5756 2.2501 16.5 2.25001C16.3218 2.24975 16.1493 2.31294 16.0135 2.42827C15.8776 2.5436 15.7873 2.70353 15.7587 2.87941C15.73 3.05528 15.7649 3.23562 15.8571 3.3881C15.9493 3.54059 16.0928 3.65526 16.2619 3.71157C16.2619 3.71157 16.4494 3.78376 16.4897 3.92345C16.5413 4.11095 16.4175 4.53095 15.9159 5.15532C15.1294 6.13407 14.8472 7.01345 15.0778 7.77001V7.77095ZM21.75 10.5H3.75C3.55109 10.5 3.36032 10.579 3.21967 10.7197C3.07902 10.8603 3 11.0511 3 11.25C3.0033 13.0336 3.49415 14.7824 4.41948 16.3072C5.34481 17.832 6.6694 19.0748 8.25 19.9013V20.25C8.25 20.6478 8.40804 21.0294 8.68934 21.3107C8.97064 21.592 9.35218 21.75 9.75 21.75H15.75C16.1478 21.75 16.5294 21.592 16.8107 21.3107C17.092 21.0294 17.25 20.6478 17.25 20.25V19.9013C18.8306 19.0748 20.1552 17.832 21.0805 16.3072C22.0058 14.7824 22.4967 13.0336 22.5 11.25C22.5 11.0511 22.421 10.8603 22.2803 10.7197C22.1397 10.579 21.9489 10.5 21.75 10.5Z"
        fill="#CE5A9D" />
</svg>
