<svg fill="none" height="36" viewBox="0 0 36 36" width="36" xmlns="http://www.w3.org/2000/svg">
    <g clip-path="url(#clip0_1_4452)">
        <path
            d="M34.2 7.2H32.4C31.4483 7.20386 30.6641 7.94786 30.6102 8.898C30.0615 8.57481 29.4368 8.40297 28.8 8.4H27.6V7.8C27.6 6.80589 26.7941 6 25.8 6V4.8C25.797 2.15027 23.6497 0.00297593 21 0H11.4C8.75027 0.00297593 6.60298 2.15027 6.6 4.8V6C5.60589 6 4.8 6.80589 4.8 7.8V8.4H3.6C1.6126 8.40199 0.00198443 10.0126 0 12V28.8C0.00198443 30.7874 1.6126 32.398 3.6 32.4H10.8192C10.812 32.4996 10.8 32.5968 10.8 32.7C10.8 34.1622 11.5014 35.2698 12.4506 35.379C12.4548 35.379 12.4572 35.3826 12.4614 35.3838C14.2804 35.7671 16.1351 35.955 17.994 35.9442C18.2442 35.9442 18.5004 35.9406 18.7608 35.9334C23.4666 35.8008 27.4512 34.4178 30.2808 31.9344C34.6188 28.131 36.3876 21.8172 35.55 13.1742C35.8376 12.8504 35.9975 12.433 36 12V9C36 8.00589 35.1941 7.2 34.2 7.2ZM31.8 9C31.8 8.66863 32.0686 8.4 32.4 8.4H34.2C34.5314 8.4 34.8 8.66863 34.8 9V12C34.8 12.3314 34.5314 12.6 34.2 12.6H32.4C32.0686 12.6 31.8 12.3314 31.8 12V9ZM26.4 7.8V8.4H20.4V7.8C20.4 7.46863 20.6686 7.2 21 7.2H25.8C26.1314 7.2 26.4 7.46863 26.4 7.8ZM13.2 8.4V7.8C13.2 6.80589 12.3941 6 11.4 6V4.8H21V6C20.0059 6 19.2 6.80589 19.2 7.8V8.4H13.2ZM7.8 4.8C7.80198 2.8126 9.4126 1.20198 11.4 1.2H21C22.9874 1.20198 24.598 2.8126 24.6 4.8V6H22.2V4.8C22.2 4.13726 21.6627 3.6 21 3.6H11.4C10.7373 3.6 10.2 4.13726 10.2 4.8V6H7.8V4.8ZM6 7.8C6 7.46863 6.26863 7.2 6.6 7.2H11.4C11.7314 7.2 12 7.46863 12 7.8V8.4H6V7.8ZM3.6 31.2C2.27452 31.2 1.2 30.1255 1.2 28.8V12C1.2 10.6745 2.27452 9.6 3.6 9.6H28.8C29.4921 9.60642 30.1479 9.91051 30.6 10.4346V12C30.6019 12.5298 30.8386 13.0314 31.2462 13.3698C30.7143 14.6819 30.0976 15.958 29.4 17.19V12.6C29.4 11.9373 28.8627 11.4 28.2 11.4H4.2C3.53726 11.4 3 11.9373 3 12.6V28.2C3 28.8627 3.53726 29.4 4.2 29.4H12.9528C13.0182 29.5146 13.0812 29.6298 13.1496 29.7432L12.423 30.0252C11.8009 30.1519 11.2928 30.5991 11.088 31.2H3.6ZM26.8524 20.9484C26.2011 18.9947 24.3422 17.7022 22.284 17.772C21.4425 17.7708 20.6135 17.9757 19.8696 18.369C20.028 17.184 20.5554 15.1122 22.3176 14.7594C22.6383 14.6905 22.8443 14.3768 22.78 14.0552C22.7157 13.7335 22.405 13.5231 22.0824 13.5828C19.4334 14.1126 18.801 17.0274 18.6498 18.4374C18.5622 18.3876 18.477 18.3354 18.3852 18.2898C16.4582 17.3045 14.1137 17.6942 12.609 19.2498C11.4522 20.5824 11.049 22.6236 11.4432 25.1526C11.6112 26.2036 11.916 27.2281 12.3498 28.2H4.2V12.6H28.2V19.119C27.772 19.7526 27.3228 20.3624 26.8524 20.9484ZM24.4524 23.5806C21.543 26.3454 18.0324 27.8406 14.2932 29.2998C13.4504 27.9846 12.885 26.5111 12.6318 24.9696C12.3966 23.457 12.3588 21.3732 13.5192 20.0364C14.583 18.8034 16.56 18.7266 17.8548 19.3644C18.1961 19.5319 18.5081 19.7534 18.7788 20.0202C19.013 20.2536 19.3918 20.2536 19.626 20.0202C20.3416 19.3357 21.2968 18.9587 22.287 18.9702C24.2256 18.9702 25.803 20.316 25.803 21.9702C25.803 22.0404 25.7988 22.116 25.7976 22.1886C25.3596 22.6704 24.915 23.1384 24.4494 23.58L24.4524 23.5806ZM12.6 31.2C12.7746 31.2 13.2 31.7268 13.2 32.7C13.2 33.6732 12.774 34.2 12.6 34.2C12.426 34.2 12 33.6744 12 32.7C12 31.7256 12.4248 31.2 12.6 31.2ZM29.4978 31.0278C24.4578 35.4516 16.9332 34.8774 13.9878 34.44C14.2689 33.9037 14.4107 33.3054 14.4 32.7C14.4195 32.0122 14.2342 31.3342 13.8678 30.7518C18.0378 29.1366 21.9744 27.588 25.2756 24.4518C25.7946 23.9586 26.2884 23.4354 26.7708 22.8984C26.784 22.8876 26.7924 22.872 26.805 22.86C29.1666 20.1825 31.0484 17.1175 32.3676 13.8H32.4H34.2C34.2673 13.7972 34.3345 13.7904 34.401 13.7796C35.0874 21.759 33.4446 27.564 29.4978 31.0278Z"
            fill="#041E42" stroke="#041E42" stroke-width="0.2" />
        <path
            d="M16.1998 20.1729C15.5577 20.1539 14.9362 20.4007 14.4819 20.855C14.0277 21.3092 13.7809 21.9307 13.7998 22.5729C13.7998 22.9043 14.0685 23.1729 14.3998 23.1729C14.7312 23.1729 14.9998 22.9043 14.9998 22.5729C14.9791 22.2481 15.0993 21.9301 15.3298 21.7003C15.5603 21.4705 15.8787 21.3512 16.2034 21.3729C16.5348 21.3719 16.8026 21.1025 16.8016 20.7711C16.8007 20.4397 16.5312 20.1719 16.1998 20.1729Z"
            fill="#041E42" stroke="#041E42" stroke-width="0.2" />
        <path
            d="M5.99954 13.7998C5.66817 13.7998 5.39954 14.0684 5.39954 14.3998V15.5998C5.39954 15.9312 5.66817 16.1998 5.99954 16.1998C6.33091 16.1998 6.59954 15.9312 6.59954 15.5998V14.3998C6.59954 14.0684 6.33091 13.7998 5.99954 13.7998Z"
            fill="#041E42" stroke="#041E42" stroke-width="0.2" />
        <path
            d="M5.99954 17.4004C5.66817 17.4004 5.39954 17.669 5.39954 18.0004V26.4004C5.39954 26.7318 5.66817 27.0004 5.99954 27.0004C6.33091 27.0004 6.59954 26.7318 6.59954 26.4004V18.0004C6.59954 17.669 6.33091 17.4004 5.99954 17.4004Z"
            fill="#041E42" stroke="#041E42" stroke-width="0.2" />
        <path
            d="M32.5196 21.612C32.1949 21.5473 31.8791 21.7578 31.814 22.0824C31.7966 22.1682 29.9882 30.7044 20.894 32.4102C20.5902 32.4669 20.3791 32.7452 20.4064 33.0531C20.4338 33.361 20.6905 33.5977 20.9996 33.6C21.0368 33.6002 21.074 33.5968 21.1106 33.5898C30.995 31.7364 32.9696 22.4118 32.9906 22.3176C33.0553 21.9927 32.8445 21.6769 32.5196 21.612Z"
            fill="#041E42" stroke="#041E42" stroke-width="0.2" />
    </g>
    <defs>
        <clipPath id="clip0_1_4452">
            <rect fill="white" height="36" width="36" />
        </clipPath>
    </defs>
</svg>
