<svg fill="none" height="125" viewBox="0 0 125 125" width="125" xmlns="http://www.w3.org/2000/svg">
    <mask style="mask-type:alpha" height="125" id="mask0_1_7714" maskUnits="userSpaceOnUse" width="125"
        x="0" y="0">
        <path
            d="M62.5 125C27.9822 125 3.6238e-07 97.0178 2.3345e-07 62.5C1.04519e-07 27.9822 27.9822 1.55688e-06 62.5 1.00296e-06C97.0178 4.49042e-07 125 27.9822 125 62.5C125 97.0178 97.0178 125 62.5 125Z"
            fill="#C4C4C4" />
    </mask>
    <g mask="url(#mask0_1_7714)">
        <path
            d="M14.9573 125C6.69662 125 4.41886e-07 118.303 4.11031e-07 110.043L5.58685e-08 14.9573C2.50132e-08 6.69662 6.69662 1.89846e-06 14.9573 1.7659e-06L110.043 2.40026e-07C118.303 1.07463e-07 125 6.69662 125 14.9573V110.043C125 118.303 118.303 125 110.043 125H14.9573Z"
            fill="#D6E6FC" />
        <path d="M35.7002 -137.324V132.176" stroke="#ACCDFA" stroke-width="1.62579" />
        <path d="M144.575 24.4731L-120.465 24.4731" stroke="#ACCDFA" stroke-width="1.62579" />
        <path d="M84.4043 -137.324V132.176" stroke="#ACCDFA" stroke-width="1.62579" />
        <path d="M144.575 76.4009L-120.465 76.4009" stroke="#ACCDFA" stroke-width="1.62579" />
        <path
            d="M15.3584 119.998C15.3584 119.998 16.6371 103.197 14.4731 87.9958C12.309 72.6946 11.6205 60.7936 23.1293 52.293C23.1293 52.293 29.4247 69.2943 17.0306 120.098L15.3584 119.998Z"
            fill="#799756" />
        <path
            d="M16.6439 134.8C16.6439 134.8 16.8407 90.6961 1.39726 70.8945C1.39726 70.8945 -0.865143 75.7949 2.47929 85.6957C5.92208 95.5965 10.6436 95.0964 13.3979 109.098C16.1521 123.199 15.5619 135 15.5619 135L16.6439 134.8Z"
            fill="#3F562C" />
        <path
            d="M20.9693 118.299C20.9693 118.299 23.2317 87.5967 29.3304 81.5962C29.3304 81.5962 33.3634 93.5972 28.5435 101.698C23.7236 109.798 21.8546 118.099 21.8546 118.099L20.9693 118.299Z"
            fill="#799756" />
        <path
            d="M12.1882 119.538C13.1588 114.322 10.3855 111.432 10.3855 111.432H26.54C26.54 111.432 23.7667 114.322 24.7373 119.538C25.5693 123.909 34.5132 133.777 27.0253 144.703H9.83089C2.41233 133.848 11.3562 123.979 12.1882 119.538Z"
            fill="#A44342" />
        <path clip-rule="evenodd" d="M118.215 1.09444C120.121 2.21352 121.22 4.22002 121.51 7.11395C118.9 8.30484 116.642 8.34074 114.736 7.22166C112.83 6.10258 111.759 4.11231 111.523 1.25085C114.078 0.0274967 116.309 -0.0246367 118.215 1.09444Z"
            fill="#799756"
            fill-rule="evenodd" />
        <path clip-rule="evenodd" d="M118.215 18.6843C120.121 19.8034 121.22 21.8099 121.51 24.7038C118.9 25.8947 116.642 25.9306 114.736 24.8115C112.83 23.6924 111.759 21.7022 111.523 18.8407C114.078 17.6173 116.309 17.5652 118.215 18.6843Z"
            fill="#799756"
            fill-rule="evenodd" />
        <path clip-rule="evenodd" d="M118.215 36.2741C120.121 37.3932 121.22 39.3997 121.51 42.2936C118.9 43.4845 116.642 43.5204 114.736 42.4013C112.83 41.2823 111.759 39.292 111.523 36.4305C114.078 35.2072 116.309 35.155 118.215 36.2741Z"
            fill="#799756"
            fill-rule="evenodd" />
        <path clip-rule="evenodd" d="M128.225 52.1773C126.811 50.4616 124.679 49.7097 121.828 49.9216C121.128 52.7446 121.485 55.014 122.898 56.7297C124.312 58.4455 126.424 59.1725 129.233 58.9108C129.974 56.1376 129.638 53.8931 128.225 52.1773Z"
            fill="#799756"
            fill-rule="evenodd" />
        <path clip-rule="evenodd" d="M104.44 -7.11357C102.534 -5.99449 101.435 -3.98798 101.144 -1.09406C103.755 0.0968255 106.013 0.132729 107.919 -0.986352C109.825 -2.10543 110.896 -4.0957 111.132 -6.95716C108.577 -8.18051 106.346 -8.23265 104.44 -7.11357Z"
            fill="#789B65"
            fill-rule="evenodd" />
        <path clip-rule="evenodd" d="M104.44 10.4758C102.534 11.5949 101.435 13.6014 101.144 16.4953C103.755 17.6862 106.013 17.7221 107.919 16.603C109.825 15.4839 110.896 13.4937 111.132 10.6322C108.577 9.40884 106.346 9.35671 104.44 10.4758Z"
            fill="#3F562C"
            fill-rule="evenodd" />
        <path clip-rule="evenodd" d="M104.44 28.0656C102.534 29.1847 101.435 31.1912 101.144 34.0851C103.755 35.276 106.013 35.3119 107.919 34.1928C109.825 33.0738 110.896 31.0835 111.132 28.222C108.577 26.9987 106.346 26.9466 104.44 28.0656Z"
            fill="#799756"
            fill-rule="evenodd" />
        <path clip-rule="evenodd" d="M105.811 45.2588C104.396 46.9734 104.039 49.2409 104.739 52.0614C107.592 52.2728 109.726 51.5212 111.141 49.8066C112.556 48.0921 112.893 45.8494 112.152 43.0786C109.34 42.8176 107.226 43.5443 105.811 45.2588Z"
            fill="#3F562C"
            fill-rule="evenodd" />
        <path d="M111.173 -58.9464V37.8885C111.173 44.3647 116.336 49.6147 122.705 49.6147H144.872"
            stroke="#A44342" stroke-linecap="round" stroke-linejoin="round"
            stroke-width="1.30747" />
        <path
            d="M54.7407 104.448C58.0797 125.935 67.6531 125.698 77.2264 141.843H101.603C86.7997 112.877 96.8401 101.005 82.1298 70.3301L54.7407 104.448Z"
            fill="#F79D7C" />
        <path
            d="M54.7412 104.448C58.9988 132.404 62.7883 120.119 75.5038 158.393H109.497C102.403 143.092 97.5791 135.265 93.9087 120.119C89.8157 103.228 93.2341 90.9671 82.1303 70.3301L54.7412 104.448Z"
            fill="#F79D7C" />
        <mask style="mask-type:alpha" height="89" id="mask1_1_7714" maskUnits="userSpaceOnUse" width="56"
            x="54" y="70">
            <path
                d="M54.7412 104.448C58.9988 132.404 62.7883 120.119 75.5038 158.393H109.497C102.403 143.092 97.5791 135.265 93.9087 120.119C89.8157 103.228 93.2341 90.9671 82.1303 70.3301L54.7412 104.448Z"
                fill="#F79D7C" />
        </mask>
        <g mask="url(#mask1_1_7714)">
            <path
                d="M70.4552 104.448C67.4824 118.545 70.2651 123.375 83.7114 158.165H67.7658C66.148 153.987 48.3651 108.937 47.6768 104.448H70.4552Z"
                fill="#E88767" />
        </g>
        <path
            d="M75.4751 104.448H45.8211C42.1553 104.448 39.1665 101.409 39.1665 97.6815V26.6914C39.1665 22.9638 42.1553 19.9248 45.8211 19.9248H75.4751C79.141 19.9248 82.1298 22.9638 82.1298 26.6914V97.6815C82.1298 101.409 79.141 104.448 75.4751 104.448Z"
            fill="#22325C" />
        <rect fill="#F6F7F9" height="79.3036" rx="4.5" width="37.8317" x="41.7324" y="22.5347" />
        <path
            d="M65.5511 25.623H55.5108C54.7169 25.623 53.9464 25.1957 53.5261 24.5071L51.8916 21.8242H69.1703L67.5125 24.5071C67.0922 25.1957 66.345 25.623 65.5511 25.623Z"
            fill="#22325C" />
        <rect fill="white" height="40.6393" rx="1.62579" width="28.7761" x="46.2603" y="36.7642" />
        <mask style="mask-type:alpha" height="15" id="mask2_1_7714" maskUnits="userSpaceOnUse" width="15"
            x="53" y="43">
            <ellipse cx="60.6486" cy="50.6061" fill="#E3E2E2" rx="7.19402" ry="7.31507" />
        </mask>
        <g mask="url(#mask2_1_7714)">
            <ellipse cx="60.6486" cy="50.6061" fill="#5BC2E7" opacity="0.3" rx="7.19402"
                ry="7.31507" />
            <ellipse cx="60.6489" cy="49.0526" fill="#5BC2E7" rx="3.00926" ry="3.0599" />
            <ellipse cx="60.6487" cy="55.7144" fill="#5BC2E7" rx="5.64237" ry="2.86866" />
        </g>
        <path
            d="M67.8424 62.7485C68.5046 62.7485 69.0414 63.2944 69.0414 63.9677C69.0414 64.6014 68.5659 65.1222 67.9579 65.1813L67.8424 65.1869H53.4544C52.7922 65.1869 52.2554 64.641 52.2554 63.9677C52.2554 63.334 52.7309 62.8132 53.3389 62.7541L53.4544 62.7485H67.8424Z"
            fill="#A5B4CB" />
        <path d="M64.645 68.438C65.3072 68.438 65.844 68.9838 65.844 69.6572C65.844 70.2909 65.3685 70.8117 64.7605 70.8708L64.645 70.8763H56.6516C55.9894 70.8763 55.4526 70.3305 55.4526 69.6572C55.4526 69.0234 55.9282 68.5026 56.5362 68.4436L56.6516 68.438H64.645Z"
            fill="#A5B4CB"
            opacity="0.5" />
        <path
            d="M79.4057 91.0525L67.8723 77.1681C66.4629 75.5164 64.3265 75.9108 63.4272 77.1681C60.6252 81.0857 65.552 88.4221 69.4047 95.4024C73.0239 101.932 67.42 112.141 70.1052 118.195L82.1684 117.997V90.1915C82.1684 92.732 80.9234 92.7382 79.4057 91.0525Z"
            fill="#F79D7C" />
    </g>
</svg>
