<svg fill="none" height="24" viewBox="0 0 25 24" width="25" xmlns="http://www.w3.org/2000/svg">
    <g clip-path="url(#clip0_1_3956)">
        <path
            d="M1.16125 15.0479C0.590781 15.7702 0.25 16.6819 0.25 17.6719V21.1641C0.25 21.5522 0.565 21.8672 0.953125 21.8672H5.21875V19.9922C5.21875 18.4997 5.77984 17.1347 6.70281 16.0993C4.88073 17.2056 2.488 16.786 1.16125 15.0479Z"
            fill="#B2CC28" />
        <path
            d="M23.3388 15.0479C22.0121 16.7859 19.6194 17.2056 17.7972 16.0993C18.7202 17.1347 19.2813 18.4997 19.2813 19.9922V21.8672H23.5469C23.9351 21.8672 24.2501 21.5522 24.2501 21.1641V17.6719C24.2501 16.6819 23.9093 15.7702 23.3388 15.0479Z"
            fill="#B2CC28" />
        <path
            d="M16.0126 16.3721C15.1873 17.5668 13.8086 18.3512 12.25 18.3512C10.6914 18.3512 9.31267 17.5667 8.48739 16.3721C7.36052 17.1809 6.625 18.502 6.625 19.9919V22.57C6.625 22.9583 6.93981 23.2731 7.32812 23.2731H17.1719C17.5602 23.2731 17.875 22.9583 17.875 22.57V19.9919C17.875 18.502 17.1395 17.1809 16.0126 16.3721Z"
            fill="#B2CC28" />
        <path
            d="M12.25 16.9453C13.9975 16.9453 15.4141 15.5287 15.4141 13.7812C15.4141 12.0338 13.9975 10.6172 12.25 10.6172C10.5025 10.6172 9.08594 12.0338 9.08594 13.7812C9.08594 15.5287 10.5025 16.9453 12.25 16.9453Z"
            fill="#B2CC28" />
        <path
            d="M4.51562 15.3047C6.06893 15.3047 7.32812 14.0455 7.32812 12.4922C7.32812 10.9389 6.06893 9.67969 4.51562 9.67969C2.96232 9.67969 1.70312 10.9389 1.70312 12.4922C1.70312 14.0455 2.96232 15.3047 4.51562 15.3047Z"
            fill="#B2CC28" />
        <path
            d="M19.9844 15.3047C21.5377 15.3047 22.7969 14.0455 22.7969 12.4922C22.7969 10.9389 21.5377 9.67969 19.9844 9.67969C18.4311 9.67969 17.1719 10.9389 17.1719 12.4922C17.1719 14.0455 18.4311 15.3047 19.9844 15.3047Z"
            fill="#B2CC28" />
        <path
            d="M10.0215 6.9605C10.9404 7.7885 11.8499 8.33754 11.8881 8.36051C12.1108 8.4942 12.3891 8.4942 12.6118 8.36051C12.65 8.33754 13.5596 7.78845 14.4784 6.9605C15.7991 5.77048 16.4688 4.61689 16.4688 3.53183C16.4688 1.07187 13.9495 -0.0844401 12.25 1.35818C10.5507 -0.0841589 8.03125 1.07145 8.03125 3.53183C8.03125 4.61689 8.70086 5.77048 10.0215 6.9605Z"
            fill="#B2CC28" />
    </g>
    <defs>
        <clipPath id="clip0_1_3956">
            <rect fill="white" height="24" transform="translate(0.25)" width="24" />
        </clipPath>
    </defs>
</svg>
