<svg fill="none" height="24" viewBox="0 0 25 24" width="25" xmlns="http://www.w3.org/2000/svg">
    <path
        d="M21.1984 3.75667C21.1877 3.57319 21.11 3.40003 20.98 3.27007C20.8501 3.1401 20.6769 3.06239 20.4934 3.05167C13.3562 2.63261 7.63937 4.78136 5.20187 8.81261C4.35697 10.1916 3.94062 11.7904 4.00562 13.4064C4.04806 14.4397 4.2583 15.4593 4.62812 16.4251C4.64985 16.4845 4.68628 16.5375 4.73399 16.5791C4.78171 16.6207 4.83918 16.6495 4.90103 16.6629C4.96289 16.6763 5.02713 16.6738 5.08776 16.6556C5.1484 16.6375 5.20346 16.6043 5.24781 16.5592L13.2166 8.46855C13.2862 8.39886 13.369 8.34359 13.46 8.30588C13.5511 8.26816 13.6486 8.24875 13.7472 8.24875C13.8457 8.24875 13.9433 8.26816 14.0344 8.30588C14.1254 8.34359 14.2081 8.39886 14.2778 8.46855C14.3475 8.53823 14.4028 8.62095 14.4405 8.712C14.4782 8.80304 14.4976 8.90062 14.4976 8.99917C14.4976 9.09772 14.4782 9.1953 14.4405 9.28634C14.4028 9.37739 14.3475 9.46011 14.2778 9.5298L5.56937 18.3695L4.23906 19.6998C4.10071 19.8345 4.01811 20.0163 4.00769 20.2091C3.99727 20.4019 4.05979 20.5916 4.18281 20.7404C4.25019 20.8184 4.33292 20.8817 4.42586 20.9264C4.51879 20.971 4.61992 20.996 4.72294 20.9997C4.82595 21.0035 4.92864 20.986 5.0246 20.9483C5.12055 20.9107 5.20771 20.8536 5.28062 20.7807L6.85469 19.2067C8.18031 19.8479 9.51812 20.1976 10.8447 20.2445C10.9491 20.2482 11.0531 20.2501 11.1569 20.2501C12.6676 20.254 14.1496 19.8379 15.4375 19.0482C19.4687 16.6107 21.6184 10.8948 21.1984 3.75667Z"
        fill="#D75050" />
</svg>
