<svg fill="none" height="62" viewBox="0 0 64 62" width="64" xmlns="http://www.w3.org/2000/svg">
    <rect fill="#041E42" height="61" rx="30.5" width="63.3571" x="0.321442" y="0.461426" />
    <path
        d="M39.7143 41.2471H34.415C35.3052 40.4523 36.1447 39.6024 36.9286 38.7025C39.8697 35.32 41.4286 31.7543 41.4286 28.39C41.4286 25.8894 40.4352 23.4912 38.667 21.723C36.8988 19.9548 34.5006 18.9614 32 18.9614C29.4994 18.9614 27.1012 19.9548 25.333 21.723C23.5648 23.4912 22.5714 25.8894 22.5714 28.39C22.5714 31.7543 24.1261 35.32 27.0714 38.7025C27.8553 39.6024 28.6948 40.4523 29.585 41.2471H24.2857C24.0584 41.2471 23.8404 41.3374 23.6796 41.4982C23.5189 41.6589 23.4286 41.877 23.4286 42.1043C23.4286 42.3316 23.5189 42.5496 23.6796 42.7104C23.8404 42.8711 24.0584 42.9614 24.2857 42.9614H39.7143C39.9416 42.9614 40.1596 42.8711 40.3204 42.7104C40.4811 42.5496 40.5714 42.3316 40.5714 42.1043C40.5714 41.877 40.4811 41.6589 40.3204 41.4982C40.1596 41.3374 39.9416 41.2471 39.7143 41.2471ZM24.2857 28.39C24.2857 26.344 25.0985 24.3819 26.5452 22.9352C27.9919 21.4885 29.9541 20.6757 32 20.6757C34.046 20.6757 36.0081 21.4885 37.4548 22.9352C38.9015 24.3819 39.7143 26.344 39.7143 28.39C39.7143 34.5218 33.7711 39.64 32 41.0329C30.2289 39.64 24.2857 34.5218 24.2857 28.39ZM36.2857 28.39C36.2857 27.5424 36.0344 26.7138 35.5635 26.009C35.0925 25.3042 34.4232 24.7549 33.6401 24.4305C32.857 24.1061 31.9953 24.0213 31.1639 24.1866C30.3326 24.352 29.5689 24.7602 28.9696 25.3595C28.3702 25.9589 27.962 26.7225 27.7966 27.5539C27.6313 28.3852 27.7162 29.247 28.0405 30.0301C28.3649 30.8132 28.9142 31.4825 29.619 31.9534C30.3238 32.4244 31.1524 32.6757 32 32.6757C33.1367 32.6757 34.2267 32.2242 35.0305 31.4205C35.8342 30.6167 36.2857 29.5266 36.2857 28.39ZM29.4286 28.39C29.4286 27.8814 29.5794 27.3843 29.8619 26.9614C30.1445 26.5385 30.5461 26.2089 31.016 26.0143C31.4858 25.8197 32.0029 25.7688 32.5017 25.868C33.0005 25.9672 33.4587 26.2121 33.8183 26.5717C34.1779 26.9313 34.4228 27.3895 34.522 27.8883C34.6213 28.3871 34.5703 28.9042 34.3757 29.374C34.1811 29.8439 33.8515 30.2455 33.4286 30.5281C33.0058 30.8106 32.5086 30.9614 32 30.9614C31.318 30.9614 30.664 30.6905 30.1817 30.2083C29.6995 29.726 29.4286 29.072 29.4286 28.39Z"
        fill="#FAFAFA" />
</svg>
