<svg fill="none" height="32" viewBox="0 0 32 32" width="32" xmlns="http://www.w3.org/2000/svg">
    <path
        d="M15.6793 25.68C15.6793 26.0301 15.5402 26.3658 15.2927 26.6134C15.0452 26.8609 14.7095 27 14.3594 27H7.3199C6.96984 27 6.63412 26.8609 6.38659 26.6134C6.13906 26.3658 6 26.0301 6 25.68V6.32C6 5.96991 6.13906 5.63417 6.38659 5.38662C6.63412 5.13907 6.96984 5 7.3199 5H14.3594C14.7095 5 15.0452 5.13907 15.2927 5.38662C15.5402 5.63417 15.6793 5.96991 15.6793 6.32C15.6793 6.67009 15.5402 7.00583 15.2927 7.25338C15.0452 7.50093 14.7095 7.64 14.3594 7.64H8.63981V24.36H14.3594C14.7095 24.36 15.0452 24.4991 15.2927 24.7466C15.5402 24.9942 15.6793 25.3299 15.6793 25.68ZM27.6123 15.0661L23.2127 10.6661C22.9647 10.4181 22.6284 10.2788 22.2777 10.2788C21.9271 10.2788 21.5907 10.4181 21.3428 10.6661C21.0948 10.9141 20.9555 11.2504 20.9555 11.6011C20.9555 11.9518 21.0948 12.2881 21.3428 12.5361L23.4887 14.68H14.3594C14.0093 14.68 13.6736 14.8191 13.4261 15.0666C13.1786 15.3142 13.0395 15.6499 13.0395 16C13.0395 16.3501 13.1786 16.6858 13.4261 16.9334C13.6736 17.1809 14.0093 17.32 14.3594 17.32H23.4887L21.3417 19.4661C21.0937 19.7141 20.9544 20.0504 20.9544 20.4011C20.9544 20.7518 21.0937 21.0881 21.3417 21.3361C21.5896 21.5841 21.926 21.7234 22.2766 21.7234C22.6273 21.7234 22.9636 21.5841 23.2116 21.3361L27.6112 16.9361C27.7344 16.8135 27.8321 16.6679 27.8988 16.5075C27.9655 16.3471 27.9999 16.1751 28 16.0013C28.0001 15.8276 27.9659 15.6556 27.8994 15.4951C27.8329 15.3346 27.7353 15.1888 27.6123 15.0661Z"
        fill="#A72626" />
</svg>
