<svg fill="none" height="88" viewBox="0 0 66 88" width="66" xmlns="http://www.w3.org/2000/svg">
    <path d="M61.8318 3.74512H4.28745V73.2469H61.8318V3.74512Z" fill="#54C0E8" />
    <path d="M0.506821 88H65.4932V0H0.506821V88ZM60.8539 70.5446H5.14615V4.5979H60.8539V70.5446Z"
        fill="#002169" />
    <path
        d="M44.6579 36.4986C44.3359 36.3209 43.9185 36.1668 44.002 35.681L44.0616 35.0174C44.7653 34.97 45.4331 35.4914 45.8386 36.1076C46.0772 36.4749 46.1845 36.9726 46.4946 37.1978C46.7689 36.1668 46.2799 34.6855 47.3294 34.0693C47.6037 34.1523 47.878 34.2945 48.0331 34.5789C48.0331 34.5789 48.0927 35.0411 47.9496 35.3136C47.6753 35.3492 46.9478 34.65 46.8285 35.4203C46.7212 36.3209 46.8524 37.3519 46.5065 38.1814C45.946 37.5415 45.8267 36.4986 44.7891 36.3327C44.7891 36.3327 44.646 36.3327 44.6579 36.4868"
        fill="#002169" />
    <path
        d="M55.4393 31.5567C55.4036 31.8174 55.2843 32.3151 54.9742 32.2559C54.8072 31.9833 54.4614 31.8411 54.2109 32.0544C53.9963 32.1966 53.7219 32.3388 53.6504 32.6114C54.0917 32.9669 54.688 33.0854 55.2843 32.9669C55.6421 32.7062 55.9402 32.327 56.3457 32.1611C56.2384 33.4764 54.7953 33.9149 53.9366 34.7326C53.9128 34.5548 53.9605 34.1756 54.0797 33.9505C53.7697 33.7845 53.2926 33.7253 53.1733 33.2868C53.2091 32.3388 53.7458 31.3789 54.6999 31.0234C55.0219 31.0234 55.4632 31.1419 55.4274 31.5567"
        fill="#002169" />
    <path
        d="M54.354 36.7596C54.7357 38.3831 55.2843 39.971 55.8448 41.5115V42.104C55.3797 41.9618 55.1292 41.2864 54.6522 40.9783V41.6774L55.9879 52.1294C56.2861 54.8075 57.0971 57.936 55.8329 60.4008C55.7733 59.5832 55.7256 58.6115 55.6898 57.7227C54.6045 51.2406 53.9843 44.5926 52.9706 38.0868C53.1853 37.3639 53.5192 36.5818 54.0559 36.0723L54.354 36.7477V36.7596Z"
        fill="#002169" />
    <path
        d="M49.7982 41.4518C49.8459 41.037 50.156 40.006 49.6551 39.4728C49.4643 39.3069 49.3331 39.3069 49.0826 39.3661C48.212 39.7335 47.9735 40.6222 47.9615 41.4518C48.1285 42.0917 48.8918 41.9495 49.2973 42.3524C47.8661 44.7224 45.2662 46.0734 43.2984 47.9931C43.9424 48.0761 44.4075 47.6731 44.9919 47.2939C46.6258 46.0023 48.868 44.438 49.5477 42.4353C49.8459 42.4946 50.0606 42.7197 50.311 42.8501C50.4064 42.696 50.5496 42.3168 50.5257 42.0087C50.3826 41.7006 50.0606 41.6177 49.7982 41.4518ZM49.5477 41.3096L48.367 40.7763C48.5579 40.2667 49.4762 40.1364 49.5477 40.8118V41.3096Z"
        fill="#002169" />
    <path
        d="M49.3092 49.3563C49.6312 49.3445 49.7147 49.0245 49.8578 48.8586C49.9413 49.3682 49.8101 49.9489 49.3092 50.2333C48.8441 50.3399 48.4744 49.9844 48.3313 49.5934C47.9496 48.4794 48.4982 47.1522 48.9276 46.1094C49.0111 47.2233 48.0808 49.0956 49.3092 49.3445"
        fill="#002169" />
    <path
        d="M52.6128 55.412C51.6825 53.9307 50.0606 52.556 48.3551 52.082C47.5918 52.1413 47.2579 52.4257 46.8285 53.4804C46.3157 54.6535 46.59 56.1348 47.4129 57.0947C43.6681 58.493 40.0067 60.1284 37.3114 63.5412C36.238 64.7737 34.95 66.4445 33.3041 66.646C32.517 66.5038 32.0399 64.8922 32.028 63.7427C32.028 63.7427 32.028 63.5649 31.9565 63.5768C31.8253 63.6005 31.7179 63.9323 31.7179 63.9323C31.5271 64.9751 31.7179 65.9587 32.1711 66.8593C32.6601 67.594 33.4234 68.0917 34.2821 68.151C34.8665 68.151 35.2958 68.0325 35.7132 67.6296L39.0526 63.8256C41.4617 60.946 44.8846 60.2706 47.9258 58.7656C48.1643 58.6708 48.3551 58.5878 48.4744 58.6352C48.6294 59.0026 48.7129 58.9907 48.8799 59.1803C49.178 58.967 49.4404 58.4693 49.3569 58.2797C50.0725 57.9953 50.478 58.019 51.5037 57.6398C52.1596 57.0473 52.5412 56.2652 52.6247 55.4238M48.6056 56.6088C48.5221 56.5614 48.3193 56.3955 48.1643 56.1467C47.8304 55.5897 47.234 54.9735 47.234 54.3573C47.5918 54.1558 48.0093 54.4047 48.3551 54.6061C49.0349 54.9379 49.7147 55.5068 50.1679 56.0519C49.6789 56.277 48.7845 56.6325 48.6056 56.6207"
        fill="#002169" />
    <path
        d="M48.0689 64.0267C48.2955 64.2874 48.1047 64.7377 47.9615 64.9747C47.8303 65.1999 47.5083 65.3658 47.234 65.2236C46.9955 65.1643 46.7689 64.9155 46.7212 64.6666C46.4708 63.446 47.234 62.1544 47.7469 61.0049C47.6753 62.0122 46.9359 63.0787 47.1267 64.1689C47.2221 64.4415 47.4845 64.5007 47.7469 64.3822C47.7469 64.3822 47.9377 64.3111 48.0689 64.0267Z"
        fill="#002169" />
    <path
        d="M14.0909 20.7497C13.7569 20.7971 13.4469 20.3587 13.0652 20.5838C12.7551 21.52 13.256 22.6813 12.7909 23.6767C12.1946 23.2027 11.9203 22.4324 11.324 21.8873C11.324 22.3258 10.9304 22.0532 10.7992 21.994C10.5249 21.7925 10.0836 21.7451 10.0479 21.1289C10.0479 20.8208 10.0359 20.5601 10.2268 20.3112C11.3359 20.5246 12.0873 21.7451 12.6478 22.705C12.6478 21.7333 12.6359 20.6312 12.9579 19.7187C13.2918 19.2803 13.8523 19.6358 14.0789 19.9676C14.0789 19.9676 14.2101 20.2994 14.0789 20.7616"
        fill="#002169" />
    <path
        d="M17.0844 10.1673C17.2275 9.93032 17.2871 9.39706 17.0367 9.20746C16.7624 9.10081 16.6431 9.04155 16.5596 8.97045C16.5596 8.8875 16.9055 8.17649 16.6073 7.33512C16.4403 6.92036 16.1183 6.83741 15.7963 6.86111C14.9257 7.20476 14.8422 8.01058 14.7349 8.7927C14.6753 9.49186 15.5459 9.45631 15.9514 9.77627C15.9275 10.0133 15.9156 10.2147 15.7605 10.3806C13.8881 12.3359 11.4432 13.5565 9.5708 15.4407C11.4074 15.2274 14.9496 12.5018 16.3569 9.90662C16.3926 9.90662 16.9412 10.1673 17.0963 10.1673M15.1285 8.30684C15.2596 7.78543 16.0587 7.61952 16.1899 8.25944C16.2376 8.43719 16.2376 8.56754 16.2137 8.75715C15.8083 8.6742 15.4505 8.53199 15.1285 8.30684Z"
        fill="#002169" />
    <path
        d="M55.2485 68.0318C55.9044 67.0008 55.4274 65.8277 55.4035 64.5478C55.5467 64.0501 56.0356 64.6308 56.3815 64.4412L56.465 63.8013C56.4531 63.6591 56.3934 63.5643 56.2145 63.4458C55.9402 63.3391 55.6421 63.1969 55.4512 63.505C54.9146 64.5478 55.3201 65.8869 55.2366 67.0245C54.676 66.0765 53.9008 64.7256 52.6486 64.536L52.5412 65.5907C52.5412 66.2898 53.3999 66.2661 53.9247 66.3728C54.4971 66.8231 54.6403 67.4156 55.01 67.9607C55.01 67.9607 55.0696 68.0437 55.2604 68.02"
        fill="#002169" />
    <path
        d="M33.006 7.65503C31.4913 8.4727 29.8097 8.86376 28.2951 9.65773C25.2539 11.2457 21.8191 11.9448 19.0403 14.2082C19.2549 14.6467 19.9824 14.4808 20.1733 14.9074C20.1852 15.1799 20.1494 15.417 20.0182 15.654C19.5769 15.6184 18.8852 15.4288 18.599 15.014C18.2531 13.3669 19.6962 12.561 21.1154 11.933L31.1097 7.66688C31.9684 7.29952 32.5408 7.16917 33.2206 6.88477C33.3757 7.13362 33.1849 7.44173 33.006 7.66688"
        fill="#002169" />
    <path
        d="M51.3248 7.06244C51.5394 8.01046 50.9789 9.26658 50.6569 9.82354C49.822 11.7551 48.0092 13.2601 47.0313 15.1325C47.2221 13.035 48.856 11.1863 50.2633 9.38509C50.3468 9.11253 50.1798 8.86367 49.9055 8.82812C47.5083 8.82812 45.2662 9.8354 43.0956 10.6649C40.114 12.0632 36.8582 12.8098 34.0316 14.5399C34.1628 14.9547 34.6041 15.014 34.938 15.1325C36.393 15.4998 37.6811 16.3886 39.303 16.2227C38.6471 15.3932 37.1325 15.7487 36.882 14.5399C37.6691 13.9356 38.8618 13.5682 39.8159 14.1133C39.8755 14.4451 39.5177 14.5281 39.0884 14.6466C38.8379 14.3148 38.3251 14.374 37.9196 14.2911C38.0866 15.2391 39.3627 15.1562 40.0783 15.6302C40.2094 15.7724 40.2452 15.9383 40.2214 16.1279C38.9214 17.4433 36.9416 16.436 35.5582 16.0212L35.4986 16.0805C38.671 18.6994 42.0938 21.342 44.5268 24.6364C46.0295 26.2836 47.1863 28.464 49.3569 29.3054C51.5514 29.5542 52.8871 27.433 54.6283 26.4258C55.1531 26.1058 55.7017 25.7503 56.3099 26.0821C56.7154 26.3902 56.5246 26.7339 56.4173 27.279C56.3099 27.67 56.1907 28.1677 55.7971 28.3218C55.6301 27.99 55.1173 28.0966 54.8788 28.2151C52.4697 28.938 50.8119 33.0263 47.9019 31.1422C46.0056 29.6372 44.6699 27.7056 43.1314 25.8925C43.3461 27.2316 43.7635 29.3291 42.3681 30.3008C41.4498 30.9644 40.448 31.5925 39.2315 31.391C38.1939 31.1066 37.2756 30.0993 37.1205 29.0684V28.5114H36.6077C31.8849 30.4667 26.1483 34.4365 20.9723 31.0474C20.0898 30.3008 19.8155 29.2343 19.1834 28.3692C16.166 28.8195 15.2835 32.0546 13.9477 34.1047C13.5303 34.7209 12.8386 34.9224 12.0992 34.9461C9.71391 34.5313 9.42768 31.6636 9.39191 29.5542C9.39191 28.8788 9.30842 27.907 9.66621 27.2671C9.61851 29.1987 9.64236 31.2607 10.5607 32.8604C10.99 33.4293 11.5148 33.6426 12.0872 33.5596C13.5303 32.7182 14.2817 31.154 15.1046 29.8386C15.8917 28.2507 17.5495 26.1295 19.577 26.2362C20.0898 26.6509 20.0421 27.2908 20.3879 27.753C21.8549 29.8386 24.264 30.597 26.8043 30.1467C30.7638 29.5661 34.1628 27.6819 37.7407 26.2362C37.9554 26.8524 37.4783 27.753 38.1701 28.3099C38.6829 28.8669 39.2911 29.2106 40.0663 29.1987C41.0324 28.9973 41.9149 28.5825 42.7259 27.9663C41.8314 25.2763 39.2553 23.238 37.2994 20.9628C35.7729 19.446 34.2582 17.7751 32.9344 16.1753C32.7317 14.4451 33.2087 13.3075 34.3179 12.4069C38.659 10.2028 43.2626 8.50817 47.9496 7.13354C48.8679 6.86098 49.667 6.55287 50.7165 6.63583C50.7165 6.63583 51.2293 6.75433 51.3128 7.05059"
        fill="#002169" />
    <path
        d="M44.5745 13.0947C44.7415 13.5687 44.5506 14.2086 44.1451 14.2915C43.7873 14.3389 43.5965 14.0901 43.4534 13.7938C43.0002 12.6206 43.7873 11.6726 44.2525 10.7246C44.4194 11.566 43.0002 12.8221 44.3121 13.4028C44.5149 13.3791 44.5626 13.0947 44.5626 13.0947"
        fill="#002169" />
    <path
        d="M19.243 18.1894C19.1118 18.9241 18.4917 19.564 17.8954 20.038L16.0349 18.5923C16.1183 17.9642 16.6669 17.4309 17.0963 16.874L17.299 16.6133C17.9788 17.028 18.6467 17.6798 19.255 18.1894"
        fill="#002169" />
    <path
        d="M29.7978 17.1703C29.5593 17.3954 29.118 17.5021 28.8198 17.3125L28.307 16.8621C28.0327 17.2177 27.7942 17.7035 27.2813 17.8102C26.7208 17.8931 26.3034 17.5495 26.1483 17.0636C25.8621 16.2104 25.552 15.5705 26.1245 14.8121C26.2795 15.5112 26.3034 16.317 26.9116 16.8621C27.3887 16.9925 27.7465 16.7436 27.9969 16.4355C27.9731 15.7008 27.5676 15.0965 27.9254 14.3973C28.474 14.5395 28.1877 16.6014 29.5712 16.4711C29.6547 15.7127 28.7602 14.9543 29.3804 14.1484C29.6547 15.0491 30.573 16.163 29.7859 17.1703"
        fill="#002169" />
    <path
        d="M19.6724 22.2545C19.4577 22.8944 18.8733 23.5106 18.3605 24.0913L16.4284 22.4085C16.7862 21.7923 17.0247 21.1287 17.6568 20.6191C18.4082 20.9746 19.0403 21.6857 19.6604 22.2663"
        fill="#002169" />
    <path
        d="M45.9579 16.4361L45.8506 17.1826C45.5405 17.23 45.3378 16.9338 45.0158 17.1234C44.5745 18.1069 45.0038 19.4697 44.7176 20.5599C44.2883 20.3822 44.1332 19.8608 43.8828 19.446L42.9764 18.5217C42.7378 18.6402 42.3323 18.5217 42.058 18.415C41.7003 18.1662 41.7718 17.5618 41.8911 17.1826C42.2131 17.0167 42.6067 17.2419 42.9287 17.4315C43.7516 17.9884 44.1809 18.8061 44.5626 19.6119C44.7057 18.6047 44.4075 17.313 44.813 16.3413C45.135 16.0568 45.6598 16.0094 45.9341 16.4479"
        fill="#002169" />
    <path
        d="M54.7715 20.4409C54.688 21.1638 53.9247 21.8393 53.4357 22.3725C52.7321 21.8511 52.1357 21.4008 51.5752 20.6898C51.9807 20.0736 52.3385 19.3863 52.9109 18.9004L54.7595 20.4409H54.7715Z"
        fill="#002169" />
    <path
        d="M51.1816 20.7969C51.0505 21.5198 50.5018 22.136 49.9413 22.6693C49.3092 22.1715 48.6652 21.5553 48.045 21.0458C48.3909 20.3822 48.7487 19.7422 49.345 19.209C50.0009 19.6237 50.5973 20.1926 51.1816 20.7969Z"
        fill="#002169" />
    <path
        d="M34.0674 22.029C34.2702 22.1949 34.0674 22.7282 33.9124 23.0126C33.6738 23.4629 33.0775 23.5459 32.7794 23.2141C31.9922 22.0409 32.9821 20.7018 33.2445 19.5879C33.1849 20.4174 32.7197 21.2943 32.9344 22.2068C33.1252 22.6097 33.4234 22.5149 33.6977 22.4675C33.6977 22.4675 34.0793 22.3253 34.0674 22.0172"
        fill="#002169" />
    <path
        d="M26.9235 25.4893C26.3511 24.8375 25.7071 23.3326 24.5621 23.617C24.419 23.5696 24.2878 23.4866 24.1566 23.3681C24.0493 22.9771 23.9778 22.3608 24.4071 22.1357C25.5401 22.4082 26.3988 23.4037 26.8281 24.3991C26.9593 23.2852 26.7566 21.9698 27.496 21.1521C27.8776 21.0692 28.2593 21.2351 28.4143 21.5432L28.2593 22.3253C27.985 22.2186 27.7226 22.0764 27.3887 22.1357C26.8997 23.0363 27.2575 24.3754 27.0667 25.3471C27.0667 25.3471 27.0667 25.4656 26.9235 25.4893Z"
        fill="#002169" />
    <path
        d="M51.2413 26.0465C51.1816 26.4968 50.9908 26.9471 50.5615 27.2433C50.0486 27.3737 49.8817 26.9352 49.7982 26.5916C49.5358 25.3355 50.144 24.186 50.8119 23.1787C50.7046 24.103 49.2973 25.6317 50.7761 26.4138C51.0266 26.4138 51.2413 26.0702 51.2413 26.0702"
        fill="#002169" />
    <path
        d="M53.1137 16.0089C53.388 16.0919 53.5192 15.7956 53.6265 15.6534C53.6027 16.0445 53.3999 16.8622 52.9706 16.8859C52.5174 16.8029 52.3623 16.5185 52.3504 16.0445C52.4339 15.3098 52.5174 14.504 53.0779 13.9707C53.0063 14.5751 52.2669 15.4757 53.1256 16.0089"
        fill="#002169" />
    <path
        d="M19.565 36.2965C19.9109 36.3795 20.221 35.8699 20.376 35.6329C20.376 36.1662 20.2329 36.6165 19.9228 37.0313C19.6247 37.2327 19.2907 37.2327 18.9926 37.0313C17.7403 35.8344 18.8018 33.6421 19.565 32.2793C19.4219 33.4288 17.8 35.3011 19.565 36.2965Z"
        fill="#002169" />
    <path
        d="M27.6272 33.1689C27.7942 34.117 26.3869 35.0413 27.3648 35.8827C27.7465 36.0723 27.8538 35.5745 27.985 35.4323C28.0923 35.9064 27.9254 36.3804 27.7346 36.7714C27.3887 37.0558 26.4942 36.6885 26.5181 36.0841C26.5419 34.9583 26.8997 34.0103 27.6272 33.1689Z"
        fill="#002169" />
    <path
        d="M41.903 35.9648C42.058 36.2967 41.8791 36.6403 41.6525 36.8892C38.4801 38.0623 35.4151 39.4607 32.362 40.9657C31.7895 41.2738 31.217 41.6885 30.7877 42.2455C31.0858 42.7787 32.362 42.5773 32.028 43.395L31.8491 43.7505C31.3601 43.632 30.7638 43.6438 30.4657 43.158C30.418 42.4588 30.5015 41.7122 30.9785 41.1671C33.1968 39.437 35.7729 38.5601 38.2178 37.3987C39.4581 36.9247 40.6746 36.4389 41.903 35.9767"
        fill="#002169" />
    <path
        d="M16.2138 37.9442C15.9633 37.8376 15.6651 37.7191 15.4028 37.8376C15.367 37.885 15.3551 37.9087 15.3551 37.9798C15.4624 38.9752 15.6651 39.8521 15.534 40.9305C15.4743 41.0609 15.2954 40.9898 15.1285 40.8239C14.5321 40.4091 14.1982 39.1648 13.3395 39.5677C12.9698 39.6033 12.5405 39.4848 12.4689 39.0819C12.3496 38.4538 12.6239 38.0509 12.6239 38.0509C13.6973 38.0983 14.5799 39.1648 15.2835 40.0299C15.367 39.07 14.6395 37.6835 15.4982 36.9014C15.7725 36.7948 16.3688 36.854 16.2972 37.2451C16.2972 37.2451 16.2853 37.6954 16.2138 37.9442Z"
        fill="#002169" />
    <path
        d="M40.7819 40.895L40.5911 41.7363C40.3287 41.6771 40.1021 41.4519 39.8278 41.5941C39.303 42.3525 39.8516 43.502 39.7085 44.3671L39.5773 45.2559C39.0287 44.7818 38.7902 43.8575 38.0866 43.2887C37.9196 43.7153 37.4187 43.4428 37.1444 43.2413C36.8104 42.8858 36.9297 42.2459 37.0609 41.843C38.0389 41.8785 38.8021 42.9569 39.2076 43.7746C39.2911 42.6251 39.1003 41.3097 39.9709 40.5039C40.2929 40.5039 40.603 40.6461 40.7819 40.895Z"
        fill="#002169" />
    <path
        d="M12.4927 43.1583C12.2542 44.3552 11.634 45.4099 11.2047 46.5357C10.7157 48.2421 9.92858 50.2566 10.7515 52.0697C10.99 52.4252 11.3955 52.6267 11.8129 52.6622C12.4927 52.6267 12.6716 52.2119 13.0056 51.8209C13.2083 53.2666 12.9221 54.9375 11.1928 54.9849C10.6799 54.9849 10.2267 54.5701 9.97629 54.1435C9.32034 52.8518 9.65428 51.2402 9.86895 49.8419C10.4056 47.4955 11.157 45.1847 12.4808 43.1465"
        fill="#002169" />
    <path
        d="M19.6247 45.5753C18.2889 45.7412 18.7063 44.1415 18.1816 43.4423C17.5853 44.3074 18.754 45.3146 17.7761 46.0138C16.2853 46.2863 17.0366 44.4733 16.5477 43.7267C15.8917 44.5088 16.3807 45.8123 16.6073 46.4049C16.822 46.7367 17.0724 47.1633 17.5614 47.0685C17.9073 46.9618 18.1339 46.713 18.2889 46.4049C18.4559 46.0138 18.7421 46.3456 18.9091 46.5115C19.2072 46.7485 19.7558 46.6537 19.9944 46.2271C20.3641 45.1369 19.8035 44.0111 19.3861 43.0986C18.8971 43.9637 19.6127 44.6866 19.7439 45.4805C19.7439 45.4805 19.7201 45.5753 19.6366 45.5872"
        fill="#002169" />
    <path
        d="M22.8925 48.5621C23.0475 48.9295 23.2383 49.0124 23.5484 48.8702C23.7035 48.7636 23.7154 48.6451 23.8108 48.5266C23.942 48.8939 23.7631 49.5931 23.3576 49.8183C22.9521 49.9723 22.5705 49.6287 22.5228 49.2257C22.3916 48.0763 22.6659 46.9386 23.0714 45.9551C23.1548 46.7727 22.7136 47.6852 22.8805 48.5621"
        fill="#002169" />
    <path
        d="M18.7541 50.3397L18.6586 51.0862C18.444 50.9203 18.1935 50.6715 17.8954 50.8374C17.3467 51.6195 17.7403 52.769 17.4899 53.6814C17.9192 54.0251 18.5513 54.191 18.8018 54.7717C18.8375 55.1272 18.9329 55.5893 18.1458 55.5893C17.2633 55.6723 16.5477 55.696 15.9872 56.2885C16.1541 58.7415 17.3348 61.1708 16.9651 63.6357C17.0486 60.756 15.2954 58.7415 15.844 55.5538C16.2615 55.0798 16.7981 54.8783 17.3706 54.7717C17.2036 54.6295 17.0963 54.4991 16.7981 54.4991C16.7147 54.5584 16.7147 54.6887 16.655 54.7717C16.3092 53.9658 17.4064 53.7525 16.5715 52.7097C15.689 51.3706 15.2 52.7453 14.9734 51.7498C14.9019 51.4654 14.7587 50.8018 15.2239 50.6004C16.2615 51.027 16.7743 52.0935 17.2275 52.9823C17.5256 52.4016 17.311 51.6669 17.3825 50.8966C17.3945 50.5411 17.3825 50.2093 17.8119 49.8775C18.1935 49.6168 18.6825 50.0197 18.766 50.3515"
        fill="#002169" />
    <path
        d="M25.5043 52.4135C25.0392 54.3332 23.0475 55.9212 21.1989 56.49C20.4118 56.8574 20.5549 58.0661 20.6384 58.8126C22.6182 59.4881 25.4208 58.8719 27.007 60.4006C26.0887 61.2894 25.0631 62.1307 23.9778 62.6877C20.2448 64.3704 15.844 67.7477 11.5625 64.8681C9.58272 63.3868 9.64236 60.8983 9.89281 58.7178C10.1313 57.7935 10.3937 57.0825 10.7038 56.0041C10.0479 57.0233 9.86896 57.8528 9.5708 58.8245C8.99834 61.7634 8.97449 65.3895 11.7772 67.3448C13.3276 68.4114 15.6771 68.2691 17.4183 67.8425C20.0182 67.013 22.4631 65.828 24.753 64.2756L25.2658 63.932C27.2933 62.7351 28.3309 60.6139 27.9254 58.4808C27.174 56.9759 25.2181 57.4736 23.8704 56.9403C25.1346 55.7671 25.564 54.2029 26.2795 52.852C26.4346 53.1127 26.4346 53.4445 26.4942 53.7289C26.8401 55.1272 28.0446 56.8337 29.6666 57.047C33.5426 57.4617 36.5481 55.1391 39.2553 52.6387C39.4819 52.1884 39.5893 51.4892 39.5416 50.9085C37.5022 52.5913 35.3435 54.4873 32.4454 54.1792C30.4895 53.5985 29.7262 51.584 29.3088 49.9131C29.6308 49.6168 30.0125 49.3206 30.3941 49.1073C31.9445 48.3607 34.5802 46.915 36.5481 48.3133C35.4389 47.0335 34.1032 46.441 32.3381 46.6187C30.8831 46.6543 29.5831 47.7801 28.9033 49.0006C27.8777 50.6241 28.5217 52.9586 29.2611 54.4517C27.3171 53.4682 26.9951 51.584 26.7924 49.3443C26.6612 45.4574 26.2915 41.5824 25.7309 37.7547C25.6594 37.3637 25.6236 36.8186 25.3254 36.7119C25.1108 37.3281 24.8603 37.9088 24.8603 38.608L25.6713 49.4509C25.6713 49.4509 25.7309 51.5721 25.5162 52.4135"
        fill="#002169" />
    <path
        d="M34.7472 60.8035C34.7114 61.2775 34.6399 62.1781 33.9362 62.2848C33.5307 62.2848 33.2326 61.9411 33.1491 61.6093C32.9821 60.2939 33.7812 59.5355 34.4371 58.623C34.5087 59.4881 32.7436 60.8509 34.3298 61.4079C34.5325 61.4079 34.7353 60.8153 34.7353 60.8153"
        fill="#002169" />
    <path
        d="M36.405 33.9508C36.2738 34.6737 35.5463 35.2188 35.1408 35.8113C34.3536 35.2781 33.6738 34.9581 33.0775 34.2945C33.3995 33.619 33.805 32.9317 34.4013 32.3984L36.405 33.939V33.9508Z"
        fill="#002169" />
    <path
        d="M32.7198 34.4368C32.4932 35.2545 31.9565 35.7522 31.4675 36.3329C30.7281 35.9773 29.9767 35.3848 29.3327 34.8279C29.7143 34.2117 29.9767 33.4651 30.6565 33.0029C31.3959 33.3703 32.0161 33.9747 32.7198 34.4368Z"
        fill="#002169" />
    <path
        d="M22.1173 80.1787C22.2723 79.7521 22.3439 79.4203 22.3439 79.1477C22.3439 78.7093 22.1769 78.2827 21.8429 77.8916L21.2705 78.6619C21.5448 79.0292 21.676 79.4203 21.676 79.8113H9.8928V78.7093C9.8928 78.4367 9.8451 78.259 9.76162 78.1642C9.67813 78.0694 9.49924 78.022 9.23686 78.022C8.97448 78.022 8.60477 78.0694 8.18735 78.1642C7.22132 78.4012 6.54152 78.6263 6.18373 78.8752C5.84979 79.0885 5.58741 79.4321 5.39659 79.9061C5.22962 80.3091 5.15807 80.5698 5.15807 80.7001L5.4443 83.639L5.59934 83.3783L5.82594 82.928L5.93327 82.691C5.98098 82.4184 6.00483 82.2762 6.00483 82.2525L5.83786 80.0839L6.24336 79.7758C6.37455 79.6691 6.54152 79.5743 6.75619 79.4795L6.69656 80.1432L9.35612 81.6363L9.71391 80.8542H21.8429C21.9384 80.6646 21.9861 80.5461 21.9861 80.5342C22.0338 80.392 22.0695 80.2735 22.1053 80.1906L22.1173 80.1787ZM9.28456 80.4157L7.28095 79.2899C7.79378 79.0411 8.31853 78.9226 8.85522 78.9226C9.3919 78.9226 9.14145 78.9463 9.20108 79.0055C9.26071 79.0648 9.28456 79.1714 9.28456 79.3373V80.4157Z"
        fill="white" />
    <path
        d="M20.0182 82.0981L19.6008 81.7189L19.0403 82.1929L19.732 82.821L20.1852 82.4417L20.6026 82.821L21.1393 82.3469L20.4714 81.707L20.0182 82.0981Z"
        fill="white" />
    <path
        d="M27.4125 76.979L27.3648 77.0975C27.3171 77.1923 27.2933 77.2752 27.2933 77.3226C27.2933 77.37 27.3291 77.4767 27.4006 77.536L27.5199 77.6426L27.9015 78.0218L28.0685 77.8441L29.8574 79.823H24.7649C24.6695 79.4083 24.4787 79.0291 24.2044 78.6499L23.62 79.3253C23.7869 79.5505 23.9301 79.752 24.0493 79.9534C24.1686 80.1549 24.2521 80.3682 24.3356 80.6052C24.1686 81.0081 23.942 81.3399 23.6915 81.6006C23.3695 81.9324 23.0117 82.0865 22.642 82.0865C22.2723 82.0865 22.1411 82.039 21.9026 81.9205L21.9741 82.0272L22.165 82.2642C22.5347 82.7382 22.8567 82.9752 23.131 82.9752C23.4053 82.9752 23.8585 82.7027 24.2163 82.1576C24.4906 81.7191 24.6814 81.2806 24.7768 80.8422H30.3226L30.6684 80.1904L30.7757 79.9771C30.8235 79.8823 30.8473 79.7994 30.8473 79.7519C30.8473 79.6453 30.7519 79.4912 30.5492 79.2661L28.2712 76.7894L31.1574 75.948L31.5987 75L27.8419 76.0428L27.4245 76.9671L27.4125 76.979Z"
        fill="white" />
    <path d="M39.6728 75.4623L38.981 74.8105L38.4444 75.3083L39.1242 75.9245L39.6728 75.4623Z"
        fill="white" />
    <path
        d="M39.303 76.801L39.7085 77.1684L40.2452 76.6943L39.5654 76.0781L39.1361 76.4455L38.7186 76.0781L38.182 76.5403L38.8379 77.1684L39.303 76.801Z"
        fill="white" />
    <path
        d="M50.8715 82.0981L50.4541 81.7189L49.8817 82.1929L50.5853 82.821L51.0266 82.4417L51.444 82.821L51.9926 82.3469L51.3247 81.707L50.8715 82.0981Z"
        fill="white" />
    <path
        d="M60.8777 75.7707L60.2098 75.4744C60.0548 75.4152 59.9594 75.3559 59.9236 75.3085C59.8401 75.2256 59.8044 75.107 59.8044 74.9648L59.4108 75.6166L59.3273 75.7351C59.2796 75.8181 59.2557 75.8773 59.2557 75.9366C59.2557 76.0551 59.3512 76.138 59.53 76.1973L59.8163 79.8234H56.0714L56.1668 79.6931C56.4173 79.3613 56.5604 79.1717 56.5843 79.1124C56.7989 78.8043 56.9063 78.5081 56.9063 78.2C56.9063 77.6075 56.5365 77.323 55.7733 77.323C55.01 77.323 54.8907 77.3942 54.3421 77.5482L53.8531 78.6029C54.4972 78.6029 54.9026 79.0058 55.0935 79.8234H51.5037L51.1101 78.4607L50.478 79.0887L50.6927 79.8353H41.8672C41.9388 79.5627 41.9745 79.3376 41.9745 79.1717C41.9745 78.7214 41.8076 78.2948 41.4617 77.9037L40.8893 78.674C41.1039 78.9821 41.2232 79.2665 41.259 79.539L41.2947 79.7879V79.8234H40.3168L39.4223 77.9274L38.8976 78.6029L39.4462 79.8234H37.9554C37.9196 79.6575 37.8838 79.5272 37.86 79.4442C37.693 79.0058 37.538 78.6621 37.3591 78.4133L36.7747 79.0887C37.0132 79.4916 37.1802 79.8116 37.2637 80.0605C37.3829 80.416 37.4426 80.7833 37.4426 81.1744C37.2279 81.3877 36.9417 81.5654 36.5839 81.7076C36.238 81.8617 35.9041 81.9328 35.6059 81.9328C34.8426 81.9328 34.4491 81.4588 34.4491 80.5108C34.4491 79.5627 34.5087 79.7168 34.616 79.2783L34.6637 79.1006C34.5564 79.3139 34.4371 79.5627 34.3298 79.8709C34.1151 80.4752 34.0078 80.9848 34.0078 81.364C34.0078 81.7432 34.1509 82.1935 34.4371 82.4898C34.7234 82.786 35.0931 82.9401 35.5343 82.9401C35.9756 82.9401 36.8343 82.7031 37.538 82.2172L37.6095 82.075L37.9912 80.8544H39.4462L39.7563 80.4634L39.9232 80.8544H41.4259L41.6048 80.4634L41.8434 80.8544H50.5973L50.8835 80.5226L50.9908 80.8544H55.0815L55.3797 80.5108L55.5467 80.8544H60.0429L60.1025 80.6885L60.2695 80.2145V80.179C60.4245 79.7405 60.508 79.4205 60.508 79.1954L60.3172 76.5054L60.5199 76.5883L60.8777 75.7707ZM55.4274 78.3777L55.7971 78.3303C56.0237 78.3303 56.1311 78.4014 56.1311 78.5555C56.1311 78.7095 56.0595 78.7925 55.9045 78.9821C55.8329 78.7214 55.6779 78.5199 55.4274 78.3777Z"
        fill="white" />
    <path
        d="M38.7783 84.8245C38.5636 84.943 38.2774 85.1089 37.9196 85.3103C38.3132 85.2629 38.671 85.2037 38.981 85.1207C39.7443 84.9193 40.281 84.4927 40.603 83.8291L40.7342 83.5684C40.2214 83.9239 39.7443 84.2438 39.2911 84.5164L38.7783 84.8245Z"
        fill="white" />
    <path
        d="M37.9196 84.3143C38.2058 84.2787 38.4205 84.255 38.5517 84.2313C39.0168 84.1365 39.4104 83.9943 39.6966 83.8165C40.1021 83.5677 40.4003 83.2359 40.603 82.833L40.7342 82.5723C40.436 82.7856 40.1975 82.9515 40.0186 83.07C39.0884 83.6269 38.3967 84.0417 37.9196 84.3143Z"
        fill="white" />
</svg>
