<svg fill="none" height="230" viewBox="0 0 230 230" width="230" xmlns="http://www.w3.org/2000/svg">
    <path d="M170.373 99.8077H130.247C130.162 99.8077 130.077 99.8077 130.013 99.8077C129.949 99.8077 129.885 99.8077 129.822 99.8077C129.779 99.8077 129.758 99.8077 129.715 99.8077C129.651 99.8077 129.609 99.8077 129.545 99.8077C129.439 99.8077 129.332 99.7864 129.247 99.7652C129.141 99.7652 129.056 99.7439 128.971 99.7227C128.886 99.7227 128.801 99.6801 128.716 99.6589C128.673 99.6589 128.631 99.6589 128.609 99.6376C128.567 99.6376 128.503 99.6163 128.461 99.5951C128.397 99.5951 128.354 99.5525 128.29 99.5525C128.142 99.51 128.014 99.4462 127.886 99.4037C127.886 99.4037 127.865 99.4037 127.844 99.4037C127.78 99.3824 127.716 99.3399 127.631 99.3186C127.567 99.2974 127.504 99.2548 127.44 99.2336C127.44 99.2336 127.397 99.2336 127.376 99.2123C127.248 99.1485 127.121 99.0847 127.015 98.9997C126.951 98.9571 126.887 98.9146 126.823 98.8721C126.759 98.8295 126.696 98.787 126.632 98.7445C126.44 98.6169 126.249 98.468 126.079 98.3192C125.951 98.2129 125.845 98.1065 125.739 98.0002C125.739 98.0002 125.717 97.9789 125.696 97.9577C125.654 97.9152 125.611 97.8726 125.569 97.8301C125.526 97.7663 125.462 97.7238 125.42 97.66C125.377 97.6174 125.335 97.5536 125.292 97.5111C125.25 97.4686 125.207 97.4048 125.186 97.3623C125.165 97.341 125.143 97.3197 125.122 97.2772C125.016 97.1496 124.931 97.0008 124.846 96.8732C124.718 96.6605 124.59 96.4479 124.484 96.214C124.463 96.1502 124.42 96.0864 124.399 96.0226C124.356 95.9163 124.293 95.7887 124.271 95.6824C124.25 95.6186 124.229 95.5548 124.208 95.491C124.186 95.4059 124.144 95.3209 124.123 95.2571C124.08 95.1295 124.059 95.0019 124.016 94.8956C123.995 94.768 123.952 94.6404 123.931 94.5128C123.931 94.4277 123.91 94.3427 123.889 94.2576C123.889 94.1726 123.889 94.0875 123.867 94.0024C123.867 93.9174 123.867 93.8323 123.867 93.7473C123.867 93.726 123.867 93.7047 123.867 93.6835C123.867 93.6197 123.867 93.5346 123.867 93.4708V54.4288C123.867 54.3862 123.867 54.3225 123.867 54.2799C123.867 54.2374 123.867 54.1949 123.867 54.1736C123.867 54.1098 123.867 54.0673 123.867 54.0035C123.867 53.9397 123.867 53.8972 123.867 53.8334C123.867 53.8334 123.867 53.8334 123.867 53.8121C123.867 53.7483 123.867 53.6632 123.889 53.5995C123.889 53.4506 123.931 53.323 123.952 53.1954C123.952 53.1316 123.974 53.0678 123.995 53.004C123.995 52.9402 124.016 52.8764 124.038 52.8127C124.059 52.7276 124.08 52.6213 124.123 52.5362C124.123 52.4937 124.144 52.4724 124.165 52.4299C124.165 52.3661 124.208 52.3236 124.229 52.2598C124.229 52.2172 124.25 52.1747 124.271 52.1322C124.293 52.0471 124.335 51.9833 124.356 51.8983C122.081 51.0264 119.614 50.5586 117.126 50.5586H67.8986C61.8595 50.5586 56.9686 55.4495 56.9686 61.4887V181.762C56.9686 189.864 65.4745 195.159 72.747 191.565L109.939 173.192C113.001 171.683 116.574 171.683 119.636 173.192L156.828 191.565C164.1 195.159 172.606 189.864 172.606 181.762V109.143C172.606 105.911 171.841 102.764 170.395 99.9353L170.373 99.8077ZM90.6732 119.35C90.6732 115.373 93.8841 112.163 97.8606 112.163C101.837 112.163 105.048 115.373 105.048 119.35C105.048 123.327 101.837 126.537 97.8606 126.537C93.8841 126.537 90.6732 123.327 90.6732 119.35ZM127.039 148.882C126.826 148.946 126.634 149.191 126.421 149.191C125.315 149.191 126.102 149.679 125.804 148.573C125.719 148.318 124.61 151.352 113.765 151.352C102.92 151.352 102.142 149.819 102.035 150.117C101.568 151.414 102.077 149.637 100.801 149.191C99.5035 148.723 98.8107 148.945 99.2573 147.647C99.3848 147.265 96.9586 151.009 106.974 148.882C108.654 148.521 111.351 149.191 113.457 149.191C115.562 149.191 121.058 146.36 122.717 146.721C132.669 148.89 128.476 146.36 128.582 146.721C128.944 148.061 128.687 146.977 127.347 147.339L127.039 148.882ZM129.503 126.537C125.526 126.537 122.315 123.327 122.315 119.35C122.315 115.373 125.526 112.163 129.503 112.163C133.479 112.163 136.69 115.373 136.69 119.35C136.69 123.327 133.479 126.537 129.503 126.537Z"
        fill="#CDD3D7"
        opacity="0.5" />
    <path
        d="M161.655 193.224C159.911 193.224 158.146 192.82 156.53 192.011L119.338 173.639C116.446 172.214 113.107 172.214 110.215 173.639L73.0234 192.011C69.4084 193.798 65.2193 193.585 61.7957 191.459C58.372 189.332 56.3306 185.653 56.3306 181.613V61.3822C56.3306 55.0028 61.5192 49.793 67.9199 49.793H117.148C119.721 49.793 122.23 50.2608 124.612 51.1752L125.228 51.4091L124.952 52.0896C124.952 52.1321 124.909 52.1746 124.888 52.2171C124.888 52.2809 124.888 52.3022 124.867 52.3235V52.366C124.824 52.4085 124.824 52.4298 124.803 52.4723L124.761 52.5786C124.739 52.6637 124.718 52.7488 124.697 52.8126C124.697 52.8764 124.675 52.9189 124.654 52.9827C124.654 53.0677 124.633 53.1103 124.612 53.1741C124.59 53.3017 124.569 53.408 124.548 53.5568C124.548 53.5781 124.548 53.5994 124.548 53.6419V53.8333V53.9609V54.0459V54.1522V54.1948V93.492C124.569 93.492 124.548 93.6196 124.548 93.6196V93.7259C124.548 93.7684 124.548 93.811 124.548 93.8535C124.548 93.9385 124.548 94.0236 124.569 94.0874C124.569 94.1512 124.569 94.215 124.59 94.2788V94.3213C124.612 94.4276 124.633 94.5552 124.675 94.6616C124.697 94.7679 124.739 94.8742 124.761 95.0018C124.761 95.0656 124.803 95.1506 124.824 95.2144L124.888 95.4058C124.931 95.4909 124.973 95.5972 125.016 95.7035C125.037 95.7673 125.058 95.8098 125.079 95.8524C125.186 96.065 125.292 96.2564 125.42 96.4691C125.484 96.5754 125.59 96.703 125.675 96.8518L125.739 96.9156C125.76 96.9581 125.802 97.0007 125.824 97.0219C125.845 97.0645 125.888 97.107 125.909 97.1495V97.1921C125.973 97.2346 126.015 97.2771 126.058 97.3409H126.079C126.1 97.4047 126.121 97.426 126.143 97.4472L126.185 97.4898C126.27 97.5961 126.377 97.6811 126.483 97.7662C126.653 97.9151 126.823 98.0426 126.993 98.149C127.057 98.1915 127.1 98.234 127.163 98.2553C127.227 98.2978 127.27 98.3191 127.334 98.3616C127.44 98.4254 127.546 98.4892 127.674 98.553L127.78 98.5955C127.823 98.5955 127.844 98.6381 127.886 98.6381C127.95 98.6806 128.014 98.7018 128.078 98.7231H128.12C128.248 98.7869 128.376 98.8294 128.482 98.872H128.524C128.546 98.8932 128.588 98.9145 128.609 98.9145H128.652C128.673 98.9358 128.716 98.957 128.737 98.957H128.78C128.801 98.957 128.822 98.9783 128.843 98.9783C128.928 98.9996 129.013 99.0208 129.077 99.0421H129.099C129.184 99.0633 129.247 99.0846 129.332 99.0846C129.418 99.0846 129.524 99.1059 129.609 99.1271H129.885C129.928 99.1484 129.992 99.1484 130.055 99.1484C130.119 99.1484 130.204 99.1484 130.268 99.1484H171.033V99.6375C172.479 102.53 173.265 105.762 173.265 108.994V181.613C173.265 185.653 171.224 189.311 167.8 191.459C165.929 192.628 163.824 193.224 161.697 193.224H161.655ZM114.787 171.3C116.552 171.3 118.317 171.704 119.912 172.49L157.104 190.863C160.315 192.458 164.036 192.267 167.077 190.374C170.118 188.482 171.926 185.228 171.926 181.634V109.015C171.926 106.059 171.245 103.125 169.948 100.467H130.226C130.14 100.467 130.055 100.467 129.97 100.467C129.907 100.467 129.843 100.467 129.779 100.467C129.736 100.467 129.673 100.467 129.63 100.467C129.609 100.467 129.566 100.467 129.545 100.467H129.481C129.354 100.467 129.247 100.424 129.12 100.424C129.013 100.424 128.907 100.382 128.801 100.36C128.695 100.36 128.588 100.318 128.503 100.297C128.482 100.297 128.439 100.297 128.397 100.275C128.333 100.275 128.29 100.254 128.227 100.233C128.184 100.233 128.142 100.212 128.099 100.19H128.057C127.929 100.127 127.78 100.084 127.61 100.02C127.589 100.02 127.567 100.02 127.546 99.999C127.482 99.9777 127.419 99.9352 127.334 99.9139C127.291 99.9139 127.248 99.8714 127.185 99.8501L127.057 99.7863C126.908 99.7226 126.781 99.6375 126.653 99.5737C126.589 99.5312 126.526 99.4886 126.462 99.4461C126.398 99.4036 126.313 99.3611 126.249 99.2973C126.058 99.1697 125.845 98.9996 125.654 98.8294C125.526 98.7231 125.42 98.6168 125.292 98.4892C125.271 98.4892 125.25 98.4467 125.228 98.4254C125.186 98.3829 125.165 98.3616 125.122 98.3191V98.2766C125.037 98.2128 124.973 98.149 124.931 98.0852C124.888 98.0214 124.846 97.9788 124.803 97.9151C124.761 97.8513 124.718 97.8087 124.675 97.7449C124.654 97.7024 124.612 97.6811 124.59 97.6386C124.484 97.4898 124.378 97.3409 124.293 97.1921C124.144 96.9581 124.016 96.703 123.889 96.4691C123.846 96.4053 123.825 96.3415 123.782 96.2564C123.74 96.1288 123.676 96.0012 123.633 95.8736L123.57 95.6823C123.527 95.5972 123.506 95.4909 123.485 95.4058C123.442 95.2782 123.421 95.1294 123.378 95.0018C123.378 94.938 123.357 94.8529 123.336 94.7891L123.017 94.4702L123.251 94.2363C123.251 94.1512 123.251 94.0874 123.229 94.0023C123.229 93.9386 123.229 93.8535 123.229 93.7897L123.144 93.6196L123.208 93.4707V54.216C123.208 54.1522 123.208 54.1097 123.208 54.0459V54.0034L123.166 53.8758L123.229 53.7482C123.229 53.7482 123.229 53.7269 123.229 53.7057C123.229 53.6844 123.229 53.6419 123.229 53.6206C123.229 53.5568 123.229 53.493 123.251 53.4292C123.251 53.2804 123.293 53.1315 123.315 52.9827C123.315 52.9189 123.336 52.8551 123.357 52.77C123.357 52.7062 123.4 52.6212 123.4 52.5574C123.421 52.4511 123.463 52.3447 123.485 52.2384V52.1959C121.443 51.4729 119.295 51.1114 117.105 51.1114H67.8774C62.1997 51.1114 57.5852 55.7258 57.5852 61.4035V181.677C57.5852 185.249 59.3927 188.524 62.4336 190.417C65.4745 192.309 69.1958 192.479 72.4068 190.906L109.599 172.533C111.215 171.746 112.959 171.342 114.724 171.342L114.787 171.3Z"
        fill="#CDD3D7" />
    <path
        d="M97.8606 127.175C93.5439 127.175 90.0352 123.667 90.0352 119.35C90.0352 115.033 93.5439 111.524 97.8606 111.524C102.177 111.524 105.686 115.033 105.686 119.35C105.686 123.667 102.177 127.175 97.8606 127.175ZM97.8606 112.8C94.2456 112.8 91.3111 115.735 91.3111 119.35C91.3111 122.965 94.2456 125.899 97.8606 125.899C101.476 125.899 104.41 122.965 104.41 119.35C104.41 115.735 101.476 112.8 97.8606 112.8Z"
        fill="#CDD3D7" />
    <path
        d="M97.8372 138.892C99.2406 138.892 100.495 139.849 100.878 141.21C100.963 141.465 102.983 147.781 113.36 147.781C123.738 147.781 126.417 141.253 126.523 140.976C127.119 139.36 128.926 138.51 130.542 139.084C132.158 139.658 133.03 141.444 132.477 143.06C132.371 143.401 129.522 151.269 119.166 153.48C117.379 153.863 115.423 154.054 113.382 154.054C111.34 154.054 109.405 153.863 107.598 153.48C97.5395 151.29 95.0727 143.741 94.8176 142.89C94.5837 142.061 94.69 141.21 95.1153 140.487C95.5406 139.764 96.1998 139.233 97.0078 139.02C97.263 138.935 97.5607 138.892 97.8584 138.892L97.8372 138.892ZM113.36 149.057C102.048 149.057 99.7297 141.87 99.6447 141.551C99.4107 140.721 98.6878 140.168 97.8584 140.168C97.0291 140.168 97.5182 140.19 97.3693 140.232C96.9015 140.36 96.4975 140.679 96.2423 141.104C95.9871 141.529 95.9233 142.04 96.0722 142.529C96.3061 143.294 98.5602 150.184 107.874 152.225C109.575 152.587 111.425 152.778 113.382 152.778C115.338 152.778 117.209 152.587 118.889 152.225C128.543 150.163 131.138 142.954 131.244 142.656C131.563 141.699 131.053 140.657 130.096 140.317C129.139 139.977 128.076 140.487 127.735 141.444C127.608 141.763 124.737 149.078 113.36 149.078L113.36 149.057Z"
        fill="#CDD3D7" />
    <path
        d="M129.503 127.175C125.186 127.175 121.677 123.667 121.677 119.35C121.677 115.033 125.186 111.524 129.503 111.524C133.819 111.524 137.328 115.033 137.328 119.35C137.328 123.667 133.819 127.175 129.503 127.175ZM129.503 112.8C125.888 112.8 122.953 115.735 122.953 119.35C122.953 122.965 125.888 125.899 129.503 125.899C133.118 125.899 136.052 122.965 136.052 119.35C136.052 115.735 133.118 112.8 129.503 112.8Z"
        fill="#CDD3D7" />
    <path d="M170.373 99.8075H130.247C126.696 99.8075 123.825 96.9368 123.825 93.3856V54.3435C123.825 53.4079 124.016 52.536 124.357 51.7705C127.227 52.8763 129.843 54.6412 131.969 56.9591L167.269 95.3845C168.502 96.7241 169.544 98.2127 170.352 99.8288L170.373 99.8075Z"
        fill="#CDD3D7"
        opacity="0.8" />
    <path
        d="M171.437 100.445H130.268C126.377 100.445 123.208 97.2768 123.208 93.3853V54.3433C123.208 53.3438 123.4 52.4082 123.782 51.5151L124.038 50.9409L124.612 51.1748C127.589 52.3231 130.311 54.1732 132.458 56.5123L167.758 94.9376C169.012 96.2986 170.097 97.8509 170.948 99.5096L171.437 100.445ZM124.739 52.6208C124.569 53.1737 124.484 53.7479 124.484 54.3433V93.3853C124.484 96.575 127.078 99.1481 130.247 99.1481H169.268C168.566 97.936 167.737 96.8302 166.801 95.7882L131.501 57.3629C129.63 55.3214 127.291 53.6841 124.739 52.5996V52.6208Z"
        fill="#CDD3D7" />
    <path
        d="M97.2602 139.615C97.4729 139.551 97.7068 139.53 97.9194 139.53C99.0252 139.53 100.025 140.253 100.322 141.359C100.407 141.614 102.576 148.398 113.421 148.398C124.266 148.398 127.073 141.487 127.18 141.189C127.647 139.892 129.094 139.232 130.369 139.679C131.667 140.147 132.347 141.55 131.9 142.847C131.773 143.23 129.072 150.715 119.057 152.842C117.377 153.203 115.505 153.416 113.4 153.416C111.295 153.416 109.424 153.203 107.765 152.842C97.8131 150.673 95.5803 143.06 95.474 142.699C95.1125 141.359 95.878 139.977 97.2177 139.615L97.2602 139.615Z"
        fill="#5BC2E7" />
    <path
        d="M136.137 122.093C137.647 118.435 135.925 114.225 132.246 112.694C128.588 111.184 124.378 112.907 122.847 116.585C121.337 120.243 123.059 124.453 126.738 125.984C130.396 127.494 134.606 125.772 136.137 122.093Z"
        fill="#5BC2E7" />
    <path
        d="M102.943 124.432C105.75 121.625 105.75 117.074 102.943 114.267C100.136 111.46 95.5853 111.46 92.7784 114.267C89.9714 117.074 89.9714 121.625 92.7784 124.432C95.5853 127.239 100.136 127.239 102.943 124.432Z"
        fill="#5BC2E7" />
    <path
        d="M98.6262 61.0205H64.9216C64.5601 61.0205 64.2836 60.7228 64.2836 60.3826C64.2836 60.0423 64.5813 59.7446 64.9216 59.7446H98.6262C98.9877 59.7446 99.2641 60.0423 99.2641 60.3826C99.2641 60.7228 98.9664 61.0205 98.6262 61.0205Z"
        fill="#CDD3D7" />
    <path
        d="M98.6262 69.7178H64.9216C64.5601 69.7178 64.2836 69.4201 64.2836 69.0798C64.2836 68.7396 64.5813 68.4419 64.9216 68.4419H98.6262C98.9877 68.4419 99.2641 68.7396 99.2641 69.0798C99.2641 69.4201 98.9664 69.7178 98.6262 69.7178Z"
        fill="#CDD3D7" />
    <path
        d="M98.6262 78.4365H64.9216C64.5601 78.4365 64.2836 78.1388 64.2836 77.7986C64.2836 77.4584 64.5813 77.1606 64.9216 77.1606H98.6262C98.9877 77.1606 99.2641 77.4584 99.2641 77.7986C99.2641 78.1388 98.9664 78.4365 98.6262 78.4365Z"
        fill="#CDD3D7" />
    <path
        d="M110.577 198.37C112.895 198.37 114.787 196.477 114.787 194.159C114.787 191.841 112.895 189.949 110.577 189.949C108.259 189.949 106.367 191.841 106.367 194.159C106.367 196.477 108.259 198.37 110.577 198.37Z"
        fill="#5BC2E7" />
    <path d="M217.102 172.205C221.036 172.205 224.205 169.016 224.205 165.103C224.205 161.19 221.015 158 217.102 158C213.19 158 210 161.19 210 165.103C210 169.016 213.19 172.205 217.102 172.205Z"
        fill="#5BC2E7"
        opacity="0.8" />
    <path
        d="M196.253 121.519C198.23 121.519 199.846 119.902 199.846 117.925C199.846 115.947 198.23 114.331 196.253 114.331C194.275 114.331 192.659 115.947 192.659 117.925C192.659 119.902 194.275 121.519 196.253 121.519Z"
        fill="#5BC2E7" />
    <path d="M102.241 38.31C105.388 38.31 107.94 35.7582 107.94 32.6111C107.94 29.4639 105.388 26.9121 102.241 26.9121C99.094 26.9121 96.5422 29.4639 96.5422 32.6111C96.5422 35.7582 99.094 38.31 102.241 38.31Z"
        fill="#5BC2E7"
        opacity="0.8" />
    <path d="M161.357 64.7206L165.121 60.9567C165.631 60.4463 165.631 59.5958 165.121 59.0854C164.611 58.575 163.76 58.575 163.25 59.0854L159.486 62.8493L155.722 59.0854C155.212 58.575 154.361 58.575 153.851 59.0854C153.34 59.5958 153.34 60.4463 153.851 60.9567L157.615 64.7206L153.851 68.4844C153.34 68.9948 153.34 69.8454 153.851 70.3557C154.106 70.6109 154.446 70.7385 154.786 70.7385C155.127 70.7385 155.467 70.6109 155.722 70.3557L159.486 66.5919L163.25 70.3557C163.505 70.6109 163.845 70.7385 164.185 70.7385C164.526 70.7385 164.866 70.6109 165.121 70.3557C165.631 69.8454 165.631 68.9948 165.121 68.4844L161.357 64.7206Z"
        fill="#5BC2E7"
        opacity="0.8" />
    <path d="M32.8544 135.192H43.6143C48.7391 135.192 53.4174 137.106 56.9686 140.274V95.0015H32.8544C27.3043 95.0015 22.2858 97.2555 18.6495 100.892C15.0133 104.528 12.7592 109.547 12.7592 115.097C12.7592 126.197 21.7542 135.192 32.8544 135.192Z"
        fill="#CDD3D7"
        opacity="0.2" />
    <path d="M32.8544 54.7899H59.1801C61.179 52.1531 64.3474 50.4519 67.8987 50.4519H117.126C119.614 50.4519 122.081 50.9197 124.357 51.7916L124.314 51.8979C124.314 51.8554 124.335 51.8341 124.357 51.7916C127.227 52.8973 129.843 54.6623 131.969 56.9589L167.269 95.3843C168.502 96.724 169.544 98.2337 170.352 99.8286C171.798 102.657 172.564 105.804 172.564 109.036V135.213H197.124C202.674 135.213 207.693 132.959 211.329 129.323C214.965 125.687 217.22 120.668 217.22 115.118C217.22 104.018 208.225 95.0228 197.124 95.0228H182.409C171.309 95.0228 162.314 86.0278 162.314 74.9276C162.314 63.8274 162.527 71.6316 162.909 70.1005L159.465 66.6556L155.701 70.4195C155.446 70.6747 155.105 70.8022 154.765 70.8022C154.425 70.8022 154.085 70.6747 153.829 70.4195C153.319 69.9091 153.319 69.0585 153.829 68.5482L157.593 64.7843L153.829 61.0205C153.319 60.5101 153.319 59.6595 153.829 59.1492C154.34 58.6388 155.19 58.6388 155.701 59.1492L159.465 62.913L163.228 59.1492C163.739 58.6388 164.589 58.6388 165.1 59.1492C165.61 59.6595 165.61 60.5101 165.1 61.0205L161.336 64.7843L163.824 67.2723C164.845 64.8056 166.333 62.5728 168.204 60.7228C171.841 57.0865 176.859 54.8324 182.409 54.8324H197.124C202.674 54.8324 207.693 52.5784 211.329 48.9421C214.965 45.3058 217.22 40.2874 217.22 34.7373C217.22 23.6371 208.225 14.6421 197.124 14.6421H32.8544C27.3043 14.6421 22.2858 16.8962 18.6495 20.5324C15.0133 24.1687 12.7592 29.1872 12.7592 34.7373C12.7592 45.8374 21.7542 54.8324 32.8544 54.8324V54.7899ZM196.253 114.331C198.23 114.331 199.846 115.947 199.846 117.925C199.846 119.903 198.23 121.519 196.253 121.519C194.275 121.519 192.659 119.903 192.659 117.925C192.659 115.947 194.275 114.331 196.253 114.331ZM102.241 26.9118C105.388 26.9118 107.94 29.4636 107.94 32.6108C107.94 35.758 105.388 38.3097 102.241 38.3097C99.094 38.3097 96.5422 35.758 96.5422 32.6108C96.5422 29.4636 99.094 26.9118 102.241 26.9118Z"
        fill="#CDD3D7"
        opacity="0.2" />
    <path d="M200.42 175.383H172.585V181.634C172.585 189.736 164.079 195.031 156.806 191.437L119.614 173.065C116.552 171.555 112.98 171.555 109.918 173.065L72.7257 191.437C65.4532 195.031 56.9473 189.736 56.9473 181.634V170.3C54.1404 172.788 50.653 174.511 46.7828 175.127C45.7408 175.297 44.6776 175.383 43.5931 175.383H29.7285C25.4542 176.063 21.6266 178.083 18.7133 181.018C15.0771 184.654 12.823 189.672 12.823 195.223C12.823 206.323 21.818 215.318 32.9182 215.318H197.209C202.76 215.318 207.778 213.064 211.414 209.427C215.051 205.791 217.305 200.773 217.305 195.223C217.305 185.207 209.968 176.892 200.399 175.383H200.42ZM110.577 198.37C108.259 198.37 106.367 196.477 106.367 194.159C106.367 191.841 108.259 189.949 110.577 189.949C112.895 189.949 114.787 191.841 114.787 194.159C114.787 196.477 112.895 198.37 110.577 198.37Z"
        fill="#CDD3D7"
        opacity="0.2" />
</svg>
