<svg fill="none" height="252" viewBox="0 0 252 252" width="252" xmlns="http://www.w3.org/2000/svg">
    <path d="M122.269 221.439C175.55 221.439 218.734 178.721 218.734 126.024C218.734 73.3261 175.55 30.6084 122.269 30.6084C68.9887 30.6084 25.8047 73.3494 25.8047 126.047C25.8047 178.745 68.9887 221.462 122.269 221.462V221.439Z"
        fill="#CDD3D7"
        opacity="0.2" />
    <path clip-rule="evenodd" d="M205.513 186.859C206.399 186.556 207.308 186.136 208.031 185.53C208.87 184.831 209.22 183.921 209.453 182.942C209.757 181.706 209.873 180.4 210.223 179.165C210.363 178.698 210.619 178.535 210.713 178.465C210.992 178.279 211.272 178.209 211.529 178.232C211.832 178.232 212.275 178.372 212.555 178.885C212.601 178.955 212.648 179.071 212.695 179.235C212.718 179.351 212.741 179.701 212.764 179.841C212.834 180.214 212.881 180.564 212.951 180.937C213.138 182.149 213.231 183.175 213.79 184.294C214.56 185.81 215.329 186.719 216.355 187.139C217.358 187.536 218.571 187.466 220.086 187.139C220.226 187.093 220.366 187.069 220.529 187.046C221.205 186.929 221.858 187.372 221.975 188.025C222.115 188.701 221.672 189.331 221.019 189.494C220.879 189.518 220.739 189.564 220.599 189.587C218.524 190.1 216.122 191.896 214.723 193.505C214.303 193.995 213.674 195.37 213.021 196.233C212.555 196.886 212.018 197.306 211.575 197.445C211.272 197.539 211.016 197.539 210.806 197.469C210.503 197.399 210.246 197.236 210.06 196.979C209.943 196.839 209.85 196.653 209.803 196.396C209.803 196.28 209.78 195.976 209.78 195.86C209.64 195.417 209.5 194.974 209.383 194.531C209.104 193.458 208.567 192.782 207.914 191.896C207.308 191.056 206.655 190.52 205.699 190.1C205.583 190.077 204.58 189.821 204.207 189.681C203.694 189.471 203.437 189.144 203.344 188.958C203.181 188.655 203.181 188.375 203.204 188.142C203.251 187.815 203.414 187.512 203.671 187.279C203.834 187.139 204.09 186.999 204.417 186.929C204.673 186.883 205.373 186.836 205.466 186.836L205.513 186.859ZM211.389 185.111C211.435 185.204 211.482 185.32 211.529 185.414C212.648 187.629 213.907 188.865 215.423 189.471H215.469C214.443 190.24 213.534 191.08 212.834 191.873C212.555 192.199 212.158 192.899 211.738 193.598C211.365 192.386 210.736 191.523 209.966 190.45C209.383 189.634 208.754 189.005 207.984 188.515C208.567 188.212 209.15 187.862 209.64 187.442C210.456 186.766 210.992 185.973 211.365 185.111H211.389Z" fill="#CDD3D7"
        fill-rule="evenodd"
        opacity="0.2" />
    <path d="M12.8401 111.963C15.3642 111.963 17.4104 109.938 17.4104 107.44C17.4104 104.941 15.3642 102.916 12.8401 102.916C10.3161 102.916 8.2699 104.941 8.2699 107.44C8.2699 109.938 10.3161 111.963 12.8401 111.963Z"
        fill="#CDD3D7"
        opacity="0.2" />
    <path
        d="M52.3633 66.9601C52.5032 67.4498 53.0162 67.7063 53.4826 67.5664L52.3633 66.9601ZM52.3633 66.9601L51.9669 67.0767C50.8011 63.136 48.5393 60.0581 45.0416 57.8196M52.3633 66.9601L51.9669 67.0767C52.1768 67.7762 52.923 68.1726 53.6225 67.9861C54.322 67.7762 54.7417 67.0534 54.5319 66.3538C53.1794 61.7836 50.5446 58.1927 46.4873 55.6045L45.0416 57.843M45.0416 57.8196C44.4354 57.4232 44.2488 56.6071 44.6452 55.9776L45.0416 57.8196ZM45.0416 57.8196L44.6452 55.9776L45.0416 57.8196ZM44.6219 55.9776C45.0183 55.3713 45.8344 55.1848 46.464 55.5812L44.6219 55.9776Z"
        fill="#5BC2E7" />
    <path
        d="M52.3633 66.9601C52.5032 67.4498 53.0162 67.7063 53.4826 67.5664L52.3633 66.9601ZM52.3633 66.9601L51.9669 67.0767M51.9669 67.0767C50.8011 63.136 48.5393 60.0581 45.0416 57.8196M51.9669 67.0767C52.1768 67.7762 52.923 68.1726 53.6225 67.9861C54.322 67.7762 54.7417 67.0534 54.5319 66.3538C53.1794 61.7836 50.5446 58.1927 46.4873 55.6045L45.0416 57.843M45.0416 57.8196C44.4354 57.4232 44.2488 56.6071 44.6452 55.9776L45.0416 57.8196ZM44.6219 55.9776C45.0183 55.3713 45.8344 55.1848 46.464 55.5812L44.6219 55.9776Z"
        stroke="#5BC2E7" />
    <path
        d="M95.081 68.4524C94.0317 68.9887 93.1223 68.9421 92.3995 68.5923C91.7 68.2425 91.2103 67.613 90.9072 66.7968C90.604 66.0274 90.5108 65.0714 90.4875 64.1853C90.4875 63.3925 90.5574 62.5997 90.674 61.9934C89.9745 61.2939 89.2283 60.6643 88.4355 60.1047C82.0698 55.6278 72.6496 57.2134 65.3046 64.0687C64.0921 65.2113 63.136 67.0067 62.4365 69.2452C61.737 71.4837 61.2473 74.0952 60.9442 76.8467C60.0581 84.2617 60.3846 92.4461 60.5478 96.2935C60.5478 96.8764 60.5944 97.3661 60.5944 97.7159C60.5944 98.0889 60.5944 98.3687 60.5944 98.5786C60.5944 98.6952 60.5944 98.7885 60.5478 98.8584C60.5478 98.9284 60.5245 98.9983 60.5012 99.0683C60.2447 99.6512 59.8016 99.8144 59.4985 99.8611C59.1021 99.931 58.7523 99.8611 58.4958 99.7212C58.1228 99.5346 57.843 99.1849 57.7031 98.6952C57.6331 98.4154 57.6098 98.0889 57.6331 97.7625C57.6331 97.6925 57.6331 97.6226 57.6331 97.576C57.6331 97.576 57.6331 97.5526 57.6331 97.5293C57.6331 97.4827 57.6331 97.4594 57.6331 97.4127C57.6331 97.3661 57.6331 97.3428 57.6331 97.2961C57.6331 97.2728 57.6331 97.2495 57.6331 97.2728C57.3999 96.4334 57.0968 95.594 56.817 94.7545C56.7703 94.638 56.7237 94.498 56.6771 94.3815C55.5812 91.1636 54.1355 88.1324 52.5499 85.0778C52.1302 84.2617 51.6871 83.4455 51.2674 82.6294C46.6039 73.6988 41.8471 64.605 34.269 57.9129C33.7327 57.4232 33.6627 56.5838 34.1524 56.0475C34.642 55.5112 35.4815 55.4645 36.0178 55.9309C43.9457 62.9261 48.889 72.393 53.6924 81.5568C54.0888 82.3263 54.4852 83.0958 54.9049 83.8419C55.9309 85.7773 56.8869 87.7126 57.7264 89.6946C57.6797 85.171 57.8196 79.5748 58.5891 74.5383C58.9855 71.9034 59.5684 69.4084 60.3612 67.2632C61.154 65.118 62.2033 63.3225 63.5324 62.0634C71.7635 54.3686 82.6061 52.6198 90.0211 57.8662C90.674 58.3093 91.2803 58.7989 91.8632 59.3352C95.8505 52.7131 103.942 50.1015 111.123 53.366C111.8 53.6691 112.079 54.4619 111.776 55.1148C111.473 55.791 110.68 56.0708 110.004 55.7677C103.872 52.9696 96.9231 55.3946 93.7752 61.3172C94.4281 62.11 95.0111 62.9495 95.524 63.8355C95.7805 64.2786 96.2236 65.2346 96.2935 66.0973C96.3868 67.03 96.0603 67.9161 95.1276 68.3824L95.081 68.4524ZM93.3788 65.8641C93.4255 66.0041 93.4721 66.074 93.4954 66.144C93.4954 66.1673 93.5187 66.1906 93.5421 66.1906C93.4721 65.9108 93.3555 65.631 93.2389 65.3978C93.2856 65.561 93.3089 65.7009 93.3788 65.8408V65.8641Z"
        fill="#5BC2E7" />
    <path
        d="M52.5499 85.0778C54.1355 88.1324 55.5812 91.1636 56.6771 94.3815C56.7237 94.498 56.7703 94.6379 56.817 94.7545C57.0968 95.594 57.3999 96.4334 57.6331 97.2728C57.6331 97.2495 57.6331 97.2728 57.6331 97.2961C57.6331 97.3428 57.6331 97.3661 57.6331 97.4127C57.6331 97.4594 57.6331 97.4827 57.6331 97.5293C57.6331 97.5526 57.6331 97.576 57.6331 97.576C57.6331 97.6226 57.6331 97.6925 57.6331 97.7625C57.6098 98.0889 57.6331 98.4154 57.703 98.6952C57.843 99.1849 58.1228 99.5346 58.4958 99.7212C58.7523 99.8611 59.1021 99.931 59.4985 99.8611C59.8016 99.8144 60.2447 99.6512 60.5012 99.0683C60.5245 98.9983 60.5478 98.9284 60.5478 98.8584C60.5944 98.7885 60.5944 98.6952 60.5944 98.5786C60.5944 98.3687 60.5944 98.0889 60.5944 97.7159C60.5944 97.3661 60.5478 96.8764 60.5478 96.2935C60.3846 92.4461 60.0581 84.2617 60.9442 76.8467C61.2473 74.0952 61.737 71.4837 62.4365 69.2452C63.136 67.0067 64.092 65.2113 65.3046 64.0687C72.6496 57.2134 82.0698 55.6278 88.4355 60.1047C89.2283 60.6643 89.9745 61.2939 90.674 61.9934C90.5574 62.5997 90.4875 63.3925 90.4875 64.1853C90.5108 65.0714 90.6041 66.0274 90.9072 66.7968C91.2103 67.613 91.7 68.2425 92.3995 68.5923C93.1223 68.9421 94.0317 68.9887 95.081 68.4524L95.1276 68.3824C96.0603 67.9161 96.3868 67.03 96.2935 66.0973C96.2236 65.2346 95.7805 64.2786 95.524 63.8355C95.0111 62.9495 94.4281 62.11 93.7752 61.3172C96.9231 55.3946 103.872 52.9696 110.004 55.7677C110.68 56.0708 111.473 55.791 111.776 55.1148C112.079 54.4619 111.8 53.6691 111.123 53.366C103.942 50.1015 95.8505 52.7131 91.8632 59.3352C91.2803 58.7989 90.674 58.3093 90.0211 57.8662C82.6061 52.6198 71.7635 54.3686 63.5324 62.0634C62.2033 63.3225 61.154 65.118 60.3612 67.2632C59.5684 69.4084 58.9855 71.9034 58.5891 74.5383C57.8196 79.5748 57.6797 85.171 57.7264 89.6946C56.8869 87.7126 55.9309 85.7773 54.9049 83.8419C54.4852 83.0958 54.0888 82.3263 53.6924 81.5568C48.889 72.393 43.9457 62.9261 36.0178 55.9309C35.4815 55.4645 34.642 55.5112 34.1524 56.0475C33.6627 56.5838 33.7327 57.4232 34.269 57.9129C41.8471 64.605 46.6039 73.6988 51.2674 82.6294C51.6871 83.4455 52.1302 84.2617 52.5499 85.0778ZM52.5499 85.0778L52.923 84.8912M93.3788 65.8641C93.4255 66.0041 93.4721 66.074 93.4954 66.144C93.4954 66.1673 93.5187 66.1906 93.5421 66.1906C93.4721 65.9108 93.3555 65.631 93.2389 65.3978C93.2856 65.561 93.3089 65.7009 93.3788 65.8408V65.8641Z"
        stroke="#5BC2E7" />
    <path
        d="M223.63 80.1348H97.9024C86.763 80.1348 77.7328 89.165 77.7328 100.304V119.168C77.7328 130.308 86.763 139.338 97.9024 139.338H223.63C234.77 139.338 243.8 130.308 243.8 119.168V100.304C243.8 89.165 234.77 80.1348 223.63 80.1348Z"
        fill="#5BC2E7" />
    <path
        d="M150.18 100.515H198.424C200.569 100.515 202.318 102.263 202.318 104.409C202.318 106.554 200.569 108.303 198.424 108.303H150.18C148.035 108.303 146.286 106.554 146.286 104.409C146.286 102.263 148.035 100.515 150.18 100.515Z"
        fill="#041E42" />
    <path
        d="M96.1069 112.149H198.704C200.849 112.149 202.598 113.898 202.598 116.043C202.598 118.189 200.849 119.937 198.704 119.937H96.1069C93.9617 119.937 92.2129 118.189 92.2129 116.043C92.2129 113.898 93.9617 112.149 96.1069 112.149Z"
        fill="white" />
    <path
        d="M222.581 119.915C227.913 119.915 232.235 115.572 232.235 110.215C232.235 104.858 227.913 100.515 222.581 100.515C217.25 100.515 212.928 104.858 212.928 110.215C212.928 115.572 217.25 119.915 222.581 119.915Z"
        fill="#041E42" />
    <path
        d="M154.168 129.638H28.4395C17.3002 129.638 8.2699 138.668 8.2699 149.807V168.671C8.2699 179.811 17.3002 188.841 28.4395 188.841H154.168C165.307 188.841 174.337 179.811 174.337 168.671V149.807C174.337 138.668 165.307 129.638 154.168 129.638Z"
        fill="#E3E3E3" />
    <path
        d="M53.669 150.018H101.913C104.058 150.018 105.807 151.766 105.807 153.912C105.807 156.057 104.058 157.806 101.913 157.806H53.669C51.5238 157.806 49.775 156.057 49.775 153.912C49.775 151.766 51.5238 150.018 53.669 150.018Z"
        fill="#B5B3B3" />
    <path
        d="M156.266 161.653H53.6924C51.5418 161.653 49.7983 163.392 49.7983 165.536C49.7983 167.68 51.5418 169.418 53.6924 169.418H156.266C158.417 169.418 160.16 167.68 160.16 165.536C160.16 163.392 158.417 161.653 156.266 161.653Z"
        fill="white" />
    <path
        d="M32.4269 169.418C37.7583 169.418 42.0803 165.075 42.0803 159.718C42.0803 154.36 37.7583 150.018 32.4269 150.018C27.0954 150.018 22.7734 154.36 22.7734 159.718C22.7734 165.075 27.0954 169.418 32.4269 169.418Z"
        fill="#B5B3B3" />
</svg>
