<svg fill="none" height="24" viewBox="0 0 25 24" width="25" xmlns="http://www.w3.org/2000/svg">
    <path
        d="M23.25 9C23.25 9.19891 23.171 9.38968 23.0304 9.53033C22.8897 9.67098 22.699 9.75 22.5 9.75H21V11.25C21 11.4489 20.921 11.6397 20.7804 11.7803C20.6397 11.921 20.449 12 20.25 12C20.0511 12 19.8604 11.921 19.7197 11.7803C19.5791 11.6397 19.5 11.4489 19.5 11.25V9.75H18C17.8011 9.75 17.6104 9.67098 17.4697 9.53033C17.3291 9.38968 17.25 9.19891 17.25 9C17.25 8.80109 17.3291 8.61032 17.4697 8.46967C17.6104 8.32902 17.8011 8.25 18 8.25H19.5V6.75C19.5 6.55109 19.5791 6.36032 19.7197 6.21967C19.8604 6.07902 20.0511 6 20.25 6C20.449 6 20.6397 6.07902 20.7804 6.21967C20.921 6.36032 21 6.55109 21 6.75V8.25H22.5C22.699 8.25 22.8897 8.32902 23.0304 8.46967C23.171 8.61032 23.25 8.80109 23.25 9ZM14.25 5.25H15V6C15 6.19891 15.0791 6.38968 15.2197 6.53033C15.3604 6.67098 15.5511 6.75 15.75 6.75C15.9489 6.75 16.1397 6.67098 16.2804 6.53033C16.421 6.38968 16.5 6.19891 16.5 6V5.25H17.25C17.449 5.25 17.6397 5.17098 17.7804 5.03033C17.921 4.88968 18 4.69891 18 4.5C18 4.30109 17.921 4.11032 17.7804 3.96967C17.6397 3.82902 17.449 3.75 17.25 3.75H16.5V3C16.5 2.80109 16.421 2.61032 16.2804 2.46967C16.1397 2.32902 15.9489 2.25 15.75 2.25C15.5511 2.25 15.3604 2.32902 15.2197 2.46967C15.0791 2.61032 15 2.80109 15 3V3.75H14.25C14.0511 3.75 13.8604 3.82902 13.7197 3.96967C13.5791 4.11032 13.5 4.30109 13.5 4.5C13.5 4.69891 13.5791 4.88968 13.7197 5.03033C13.8604 5.17098 14.0511 5.25 14.25 5.25ZM20.3569 14.0934C19.0266 14.3563 17.6521 14.2874 16.3547 13.8929C15.0574 13.4985 13.8772 12.7906 12.9183 11.8317C11.9595 10.8729 11.2516 9.69266 10.8571 8.3953C10.4626 7.09795 10.3938 5.72341 10.6566 4.39313C10.6823 4.26258 10.6729 4.12753 10.6292 4.00184C10.5855 3.87614 10.5092 3.76434 10.4081 3.67788C10.3069 3.59142 10.1846 3.53344 10.0536 3.50987C9.92267 3.4863 9.7878 3.49799 9.66285 3.54375C8.24266 4.06306 6.97622 4.93183 5.98046 6.06985C4.9847 7.20786 4.29173 8.57843 3.96555 10.055C3.63936 11.5315 3.69047 13.0665 4.11415 14.5181C4.53784 15.9696 5.32045 17.2911 6.3897 18.3603C7.45896 19.4296 8.78039 20.2122 10.232 20.6359C11.6836 21.0596 13.2185 21.1107 14.6951 20.7845C16.1716 20.4583 17.5422 19.7653 18.6802 18.7696C19.8182 17.7738 20.687 16.5074 21.2063 15.0872C21.252 14.9622 21.2637 14.8274 21.2402 14.6964C21.2166 14.5654 21.1586 14.4431 21.0722 14.342C20.9857 14.2408 20.8739 14.1645 20.7482 14.1208C20.6225 14.0771 20.4875 14.0677 20.3569 14.0934Z"
        fill="#EC9A36" />
</svg>
