<svg fill="none" height="37" viewBox="0 0 38 37" width="38" xmlns="http://www.w3.org/2000/svg">
    <path
        d="M32.9838 22.8802H32.3255V12.0523C32.3255 7.84082 28.9029 4.42375 24.6969 4.42375H24.4684C23.6413 2.12214 21.4322 0.544189 18.9619 0.544189C16.4862 0.544189 14.2771 2.12214 13.4555 4.42375H13.3031C9.09709 4.42375 5.67456 7.84082 5.67456 12.0523V22.8802H5.0162C3.66677 22.8802 2.57312 23.9739 2.57312 25.3179V30.7482C2.57312 32.0921 3.66677 33.1858 5.0162 33.1858H5.67456V33.4416C5.67456 35.1066 7.02944 36.456 8.689 36.456H29.311C30.976 36.456 32.3255 35.1066 32.3255 33.4416V33.1858H32.9838C34.3333 33.1858 35.4269 32.0921 35.4269 30.7482V25.3179C35.4269 23.9739 34.3333 22.8802 32.9838 22.8802ZM5.67456 32.0976H5.0162C4.27076 32.0976 3.66136 31.4936 3.66136 30.7482V25.3179C3.66136 24.5724 4.27077 23.9685 5.0162 23.9685H5.67456V32.0976ZM18.9619 1.63242C20.8391 1.63242 22.5313 2.75331 23.2985 4.42375H14.6253C15.3871 2.75331 17.0793 1.63242 18.9619 1.63242ZM31.2372 33.4416C31.2372 34.508 30.3775 35.3677 29.311 35.3677H8.689C7.62796 35.3677 6.7628 34.508 6.7628 33.4416V17.1398C7.30692 17.6186 8.02516 17.9016 8.80324 17.9016H10.811V18.6742C10.811 19.2673 11.2953 19.7461 11.8884 19.7461H13.499C14.0921 19.7461 14.5763 19.2673 14.5763 18.6742V17.9016H23.4291V18.6742C23.4291 19.2673 23.9134 19.7461 24.5065 19.7461H26.1116C26.7047 19.7461 27.189 19.2673 27.189 18.6742V17.9016H29.2076C29.9858 17.9016 30.6931 17.6186 31.2372 17.1452L31.2372 33.4416ZM11.8993 18.6742V15.7305L13.4881 15.7196L13.499 18.6579L11.8993 18.6742ZM24.5174 18.6742V15.7305L26.1008 15.7196L26.1116 18.6579L24.5174 18.6742ZM31.2372 14.7783C31.2372 15.8992 30.3231 16.8133 29.2076 16.8133H27.189V15.7196C27.189 15.1211 26.7047 14.6423 26.1116 14.6423H24.5065C23.9134 14.6423 23.4291 15.1211 23.4291 15.7196V16.8133H14.5764V15.7196C14.5764 15.1211 14.0921 14.6423 13.499 14.6423H11.8884C11.2953 14.6423 10.811 15.1211 10.811 15.7196V16.8133H8.80325C7.67695 16.8133 6.7628 15.8992 6.7628 14.7783V12.0523C6.7628 8.44479 9.6956 5.51198 13.3031 5.51198H24.6969C28.3044 5.51198 31.2372 8.44478 31.2372 12.0523L31.2372 14.7783ZM34.3387 30.7482C34.3387 31.4936 33.7293 32.0976 32.9838 32.0976H32.3255V23.9685H32.9838C33.7293 23.9685 34.3387 24.5724 34.3387 25.3179V30.7482Z"
        fill="#041E42" stroke="#041E42" stroke-width="0.6" />
    <path
        d="M24.9367 23.6145H13.0655C11.8753 23.6145 10.9071 24.5827 10.9071 25.7729V31.4606C10.9071 32.7455 11.9528 33.7912 13.2382 33.7912H24.764C26.0494 33.7912 27.0951 32.7455 27.0951 31.4606V25.7729C27.0951 24.5827 26.127 23.6145 24.9367 23.6145ZM13.0655 24.7027H24.9367C25.5271 24.7027 26.0069 25.1826 26.0069 25.7729V26.1539H11.9953V25.7729C11.9953 25.1826 12.4752 24.7027 13.0655 24.7027ZM24.764 32.703H13.2382C12.5527 32.703 11.9953 32.1456 11.9953 31.4606V27.2421H13.1383V28.4207C13.1383 28.7215 13.3817 28.9648 13.6824 28.9648C13.9832 28.9648 14.2265 28.7215 14.2265 28.4207V27.2421H26.0069V31.4606C26.0069 32.1456 25.4495 32.703 24.764 32.703Z"
        fill="#041E42" stroke="#041E42" stroke-width="0.6" />
    <path
        d="M29.5343 28.1594C29.2336 28.1594 28.9902 28.4028 28.9902 28.7035V31.0107C28.9902 31.6808 28.6448 32.2924 28.0662 32.6457C27.8095 32.8025 27.7287 33.1378 27.8855 33.3939C27.9881 33.5618 28.1671 33.6543 28.3504 33.6543C28.4471 33.6543 28.5449 33.6288 28.6337 33.5746C29.5386 33.0214 30.0784 32.0628 30.0784 31.0107V28.7035C30.0784 28.4028 29.8351 28.1594 29.5343 28.1594Z"
        fill="#041E42" stroke="#041E42" stroke-width="0.6" />
    <path
        d="M29.5341 25.9893C29.2334 25.9893 28.99 26.2326 28.99 26.5334V26.8283C28.99 27.129 29.2334 27.3724 29.5341 27.3724C29.8348 27.3724 30.0782 27.129 30.0782 26.8283V26.5334C30.0782 26.2326 29.8348 25.9893 29.5341 25.9893Z"
        fill="#041E42" stroke="#041E42" stroke-width="0.6" />
</svg>
