<svg fill="none" height="32" viewBox="0 0 32 32" width="32" xmlns="http://www.w3.org/2000/svg">
    <path
        d="M12.248 6.83923C12.2063 6.68375 12.1968 6.52186 12.2199 6.3628C12.2429 6.20375 12.2982 6.05066 12.3824 5.91228C12.4666 5.7739 12.5782 5.65295 12.7108 5.55634C12.8434 5.45974 12.9944 5.38937 13.1551 5.34927C15.0187 4.88358 16.9739 4.88358 18.8375 5.34927C19.0017 5.38605 19.1566 5.45426 19.2931 5.54989C19.4296 5.64551 19.545 5.76661 19.6324 5.90605C19.7198 6.04549 19.7774 6.20044 19.802 6.36179C19.8265 6.52314 19.8175 6.68761 19.7753 6.84551C19.7332 7.00342 19.6588 7.15156 19.5566 7.28122C19.4544 7.41087 19.3264 7.51942 19.1802 7.60045C19.0339 7.68149 18.8724 7.73338 18.7051 7.75307C18.5378 7.77275 18.3682 7.75984 18.2061 7.71508C16.7567 7.35288 15.2359 7.35288 13.7864 7.71508C13.4624 7.7962 13.1184 7.74953 12.8299 7.5853C12.5414 7.42107 12.3321 7.15273 12.248 6.83923ZM5.92465 14.561C6.03439 14.5899 6.14763 14.6047 6.26139 14.6048C6.53751 14.6046 6.80598 14.5169 7.02568 14.3551C7.24539 14.1932 7.40422 13.9661 7.47785 13.7085C7.87885 12.3134 8.63921 11.0396 9.6877 10.0065C9.81052 9.89355 9.90859 9.75778 9.97605 9.60734C10.0435 9.45689 10.079 9.29484 10.0804 9.13084C10.0818 8.96685 10.0491 8.80425 9.98418 8.65275C9.91928 8.50125 9.82354 8.36394 9.70266 8.24901C9.58178 8.13407 9.43823 8.04385 9.28056 7.98373C9.1229 7.92362 8.95435 7.89482 8.78494 7.89908C8.61554 7.90333 8.44876 7.94053 8.29452 8.00848C8.14029 8.07642 8.00177 8.17372 7.8872 8.29456C6.53914 9.6238 5.56157 11.2623 5.04597 13.0567C4.95646 13.369 4.99873 13.7028 5.16351 13.9849C5.32828 14.267 5.60206 14.4742 5.92465 14.561ZM18.2061 24.2849C16.7567 24.6471 15.2359 24.6471 13.7864 24.2849C13.6244 24.2402 13.4547 24.2272 13.2875 24.2469C13.1202 24.2666 12.9587 24.3185 12.8124 24.3995C12.6662 24.4806 12.5382 24.5891 12.436 24.7188C12.3338 24.8484 12.2594 24.9966 12.2172 25.1545C12.1751 25.3124 12.166 25.4769 12.1906 25.6382C12.2152 25.7996 12.2728 25.9545 12.3602 26.094C12.4476 26.2334 12.563 26.3545 12.6995 26.4501C12.836 26.5457 12.9909 26.6139 13.1551 26.6507C15.0187 27.1164 16.9739 27.1164 18.8375 26.6507C19.0017 26.6139 19.1566 26.5457 19.2931 26.4501C19.4296 26.3545 19.545 26.2334 19.6324 26.094C19.7198 25.9545 19.7774 25.7996 19.802 25.6382C19.8265 25.4769 19.8175 25.3124 19.7753 25.1545C19.7332 24.9966 19.6588 24.8484 19.5566 24.7188C19.4544 24.5891 19.3264 24.4806 19.1802 24.3995C19.0339 24.3185 18.8724 24.2666 18.7051 24.2469C18.5378 24.2272 18.3682 24.2402 18.2061 24.2849ZM24.5147 13.7106C24.6097 14.0168 24.8249 14.2748 25.1142 14.4292C25.4034 14.5837 25.7437 14.6223 26.062 14.5367C26.3804 14.4512 26.6514 14.2483 26.8169 13.9716C26.9825 13.695 27.0294 13.3665 26.9477 13.0567C26.4328 11.2614 25.4552 9.62206 24.1064 8.29253C23.9925 8.16915 23.8538 8.06947 23.6988 7.99953C23.5438 7.92959 23.3757 7.89084 23.2048 7.88564C23.0339 7.88044 22.8637 7.90889 22.7044 7.96927C22.5452 8.02964 22.4003 8.12069 22.2785 8.23689C22.1568 8.35309 22.0607 8.49201 21.996 8.64523C21.9314 8.79846 21.8996 8.96279 21.9025 9.12827C21.9055 9.29375 21.9431 9.45692 22.0132 9.60789C22.0833 9.75886 22.1843 9.89449 22.3101 10.0065C23.3567 11.0409 24.1148 12.3153 24.5137 13.7106H24.5147ZM26.9508 18.9443C26.3715 20.9622 25.2083 22.7777 23.5982 24.177C23.4542 24.3023 23.2823 24.394 23.0958 24.4447C22.9094 24.4955 22.7133 24.5041 22.5229 24.4699C22.3325 24.4356 22.1527 24.3594 21.9976 24.2472C21.8425 24.1349 21.7161 23.9896 21.6283 23.8226C21.1004 22.8164 20.295 21.9713 19.3013 21.381C18.3076 20.7907 17.1644 20.4782 15.9984 20.4782C14.8324 20.4782 13.6892 20.7907 12.6955 21.381C11.7018 21.9713 10.8964 22.8164 10.3685 23.8226C10.2808 23.9897 10.1545 24.135 9.99935 24.2474C9.84425 24.3597 9.66452 24.4359 9.47408 24.4703C9.39803 24.4836 9.32092 24.4904 9.24363 24.4906C8.93268 24.49 8.63292 24.3783 8.40178 24.177C6.78913 22.7783 5.62362 20.9622 5.04281 18.9433C4.97381 18.6381 5.02819 18.3189 5.19479 18.0513C5.3614 17.7837 5.62756 17.588 5.93861 17.5044C6.24966 17.4209 6.58197 17.4558 6.86726 17.6019C7.15255 17.7481 7.36916 17.9945 7.47259 18.2904C7.78644 19.3841 8.32312 20.4059 9.05106 21.2958C9.8689 20.2864 10.9122 19.4693 12.1028 18.9056C11.3444 18.1623 10.83 17.2186 10.6245 16.1931C10.4189 15.1677 10.5313 14.1063 10.9474 13.1425C11.3636 12.1787 12.065 11.3555 12.9634 10.7765C13.8617 10.1976 14.917 9.88864 15.9963 9.88864C17.0756 9.88864 18.1309 10.1976 19.0292 10.7765C19.9276 11.3555 20.629 12.1787 21.0452 13.1425C21.4613 14.1063 21.5737 15.1677 21.3681 16.1931C21.1626 17.2186 20.6482 18.1623 19.8898 18.9056C21.0801 19.4697 22.1234 20.2868 22.9415 21.2958C23.6689 20.4063 24.2055 19.3852 24.52 18.2925C24.6096 17.9801 24.8237 17.715 25.1153 17.5554C25.4069 17.3958 25.752 17.3549 26.0748 17.4416C26.3975 17.5283 26.6715 17.7355 26.8364 18.0177C27.0013 18.2999 27.0436 18.6339 26.954 18.9463L26.9508 18.9443ZM15.9963 18.0369C16.5791 18.0369 17.1487 17.8696 17.6333 17.5563C18.1178 17.2429 18.4955 16.7976 18.7185 16.2765C18.9415 15.7555 18.9998 15.1821 18.8861 14.6289C18.7725 14.0758 18.4918 13.5677 18.0798 13.1689C17.6677 12.7701 17.1427 12.4985 16.5711 12.3884C15.9996 12.2784 15.4071 12.3349 14.8687 12.5507C14.3303 12.7666 13.8702 13.132 13.5464 13.601C13.2226 14.0699 13.0498 14.6213 13.0498 15.1853C13.0498 15.9415 13.3603 16.6669 13.9128 17.2016C14.4654 17.7364 15.2148 18.0369 15.9963 18.0369Z"
        fill="#5BC2E7" />
</svg>
