<svg width="25" height="24" viewBox="0 0 25 24" fill="none" xmlns="http://www.w3.org/2000/svg">
<path d="M19.75 3H4.75C4.35218 3 3.97064 3.15804 3.68934 3.43934C3.40804 3.72064 3.25 4.10218 3.25 4.5V19.5C3.25 19.8978 3.40804 20.2794 3.68934 20.5607C3.97064 20.842 4.35218 21 4.75 21H19.75C20.1478 21 20.5294 20.842 20.8107 20.5607C21.092 20.2794 21.25 19.8978 21.25 19.5V4.5C21.25 4.10218 21.092 3.72064 20.8107 3.43934C20.5294 3.15804 20.1478 3 19.75 3ZM18.25 17.25H6.25C6.05109 17.25 5.86032 17.171 5.71967 17.0303C5.57902 16.8897 5.5 16.6989 5.5 16.5C5.5 16.3011 5.57902 16.1103 5.71967 15.9697C5.86032 15.829 6.05109 15.75 6.25 15.75H18.25C18.4489 15.75 18.6397 15.829 18.7803 15.9697C18.921 16.1103 19 16.3011 19 16.5C19 16.6989 18.921 16.8897 18.7803 17.0303C18.6397 17.171 18.4489 17.25 18.25 17.25ZM18.25 12.75H6.25C6.05109 12.75 5.86032 12.671 5.71967 12.5303C5.57902 12.3897 5.5 12.1989 5.5 12C5.5 11.8011 5.57902 11.6103 5.71967 11.4697C5.86032 11.329 6.05109 11.25 6.25 11.25H18.25C18.4489 11.25 18.6397 11.329 18.7803 11.4697C18.921 11.6103 19 11.8011 19 12C19 12.1989 18.921 12.3897 18.7803 12.5303C18.6397 12.671 18.4489 12.75 18.25 12.75ZM18.25 8.25H6.25C6.05109 8.25 5.86032 8.17098 5.71967 8.03033C5.57902 7.88968 5.5 7.69891 5.5 7.5C5.5 7.30109 5.57902 7.11032 5.71967 6.96967C5.86032 6.82902 6.05109 6.75 6.25 6.75H18.25C18.4489 6.75 18.6397 6.82902 18.7803 6.96967C18.921 7.11032 19 7.30109 19 7.5C19 7.69891 18.921 7.88968 18.7803 8.03033C18.6397 8.17098 18.4489 8.25 18.25 8.25Z" fill="#041E42"/>
</svg>
