<svg fill="none" height="48" viewBox="0 0 48 48" width="48" xmlns="http://www.w3.org/2000/svg">
    <rect fill="#0A0A0B" fill-opacity="0.4" height="48" rx="24" width="48" />
    <path
        d="M31.8749 30.7502C31.875 31.2428 31.7672 31.7294 31.5592 32.1759C31.3512 32.6225 31.0479 33.018 30.6707 33.3349C30.2935 33.6517 29.8516 33.8821 29.3758 34.01C28.9001 34.1378 28.4022 34.16 27.917 34.0749C27.4318 33.9898 26.9711 33.7995 26.5672 33.5174C26.1634 33.2353 25.8262 32.8682 25.5793 32.442C25.3325 32.0157 25.1819 31.5405 25.1382 31.0499C25.0946 30.5592 25.1588 30.0649 25.3265 29.6017L20.3578 26.4095C19.8832 26.875 19.2818 27.19 18.6289 27.315C17.976 27.44 17.3007 27.3693 16.6878 27.112C16.0749 26.8547 15.5516 26.422 15.1837 25.8684C14.8157 25.3148 14.6194 24.6649 14.6194 24.0002C14.6194 23.3354 14.8157 22.6855 15.1837 22.1319C15.5516 21.5783 16.0749 21.1457 16.6878 20.8883C17.3007 20.631 17.976 20.5604 18.6289 20.6853C19.2818 20.8103 19.8832 21.1253 20.3578 21.5908L25.3265 18.4033C25.042 17.6215 25.0555 16.7622 25.3645 15.9897C25.6735 15.2172 26.2562 14.5857 27.0015 14.2157C27.7467 13.8457 28.6021 13.7633 29.4042 13.9842C30.2064 14.2051 30.899 14.7138 31.3498 15.4131C31.8005 16.1124 31.9778 16.9533 31.8478 17.775C31.7178 18.5968 31.2895 19.3418 30.6449 19.8678C30.0002 20.3938 29.1844 20.6638 28.3532 20.6262C27.5221 20.5887 26.7339 20.2462 26.1393 19.6642L21.1706 22.8564C21.4391 23.5985 21.4391 24.4112 21.1706 25.1533L26.1393 28.3455C26.6137 27.8812 27.2145 27.5671 27.8665 27.4425C28.5185 27.3179 29.1927 27.3884 29.8049 27.645C30.4171 27.9017 30.9399 28.3331 31.3081 28.8855C31.6763 29.4378 31.8735 30.0864 31.8749 30.7502Z"
        fill="#FAFAFA" />
</svg>
