<svg fill="none" height="32" viewBox="0 0 32 32" width="32" xmlns="http://www.w3.org/2000/svg">
    <path clip-rule="evenodd" d="M17.3037 27.0757H4.21749C4.14848 27.0757 4.08207 27.0484 4.03389 27.0002C3.98441 26.9507 3.95707 26.8843 3.95707 26.8153V24.9272C3.95707 23.8465 4.72922 22.8933 5.91935 22.0821C8.04439 20.6329 11.4833 19.7188 15.3505 19.7188C15.8896 19.7188 16.3271 19.2813 16.3271 18.7422C16.3271 18.2031 15.8896 17.7656 15.3505 17.7656C11.0249 17.7656 7.19542 18.8477 4.81776 20.4688C3.00393 21.7058 2.00391 23.2775 2.00391 24.9272V26.8153C2.00391 27.4025 2.23698 27.9663 2.65236 28.3804C3.06773 28.7958 3.63024 29.0289 4.21749 29.0289H17.3037C17.8428 29.0289 18.2803 28.5914 18.2803 28.0523C18.2803 27.5132 17.8428 27.0757 17.3037 27.0757Z"
        fill="#5BC2E7"
        fill-rule="evenodd" />
    <path clip-rule="evenodd" d="M15.349 2.31934C11.3958 2.31934 8.18738 5.52773 8.18738 9.48094C8.18738 13.4328 11.3958 16.6425 15.349 16.6425C19.3022 16.6425 22.5106 13.4328 22.5106 9.48094C22.5106 5.52773 19.3022 2.31934 15.349 2.31934ZM15.349 4.2725C18.224 4.2725 20.5574 6.60588 20.5574 9.48094C20.5574 12.3547 18.224 14.6894 15.349 14.6894C12.4739 14.6894 10.1405 12.3547 10.1405 9.48094C10.1405 6.60588 12.4739 4.2725 15.349 4.2725Z"
        fill="#5BC2E7"
        fill-rule="evenodd" />
    <path clip-rule="evenodd" d="M22.4743 29.3934C22.6566 29.5757 22.9053 29.6786 23.1644 29.6786C23.4235 29.6786 23.6722 29.5757 23.8545 29.3934L28.7101 24.5379C30.4301 22.8178 30.4301 20.0235 28.7101 18.3021C27.2035 16.7968 24.8754 16.608 23.1644 17.7383C21.4534 16.608 19.1252 16.7968 17.6187 18.3021C15.9051 20.017 15.8986 22.7957 17.5992 24.5183L22.4743 29.3934ZM23.1644 27.3218L18.9872 23.1446C18.0419 22.185 18.0458 20.6381 19.0002 19.6836C19.9586 18.7253 21.5159 18.7253 22.4743 19.6836C22.8558 20.0651 23.473 20.0651 23.8545 19.6836C24.8142 18.7253 26.3702 18.7253 27.3285 19.6836C28.2869 20.642 28.2869 22.198 27.3285 23.1576L23.1644 27.3218Z"
        fill="#5BC2E7"
        fill-rule="evenodd" />
</svg>
