<svg fill="none" height="56" viewBox="0 0 57 56" width="57" xmlns="http://www.w3.org/2000/svg">
    <path
        d="M28.5 5.25C24.0005 5.25 19.602 6.58426 15.8608 9.08407C12.1196 11.5839 9.20364 15.1369 7.48175 19.294C5.75986 23.451 5.30933 28.0252 6.18715 32.4383C7.06496 36.8514 9.23169 40.905 12.4133 44.0867C15.595 47.2683 19.6486 49.435 24.0617 50.3129C28.4748 51.1907 33.049 50.7402 37.2061 49.0183C41.3631 47.2964 44.9161 44.3804 47.4159 40.6392C49.9157 36.898 51.25 32.4995 51.25 28C51.2436 21.9683 48.8447 16.1854 44.5797 11.9204C40.3146 7.65528 34.5317 5.25637 28.5 5.25ZM38.4881 23.9881L26.2381 36.2381C26.0756 36.4008 25.8826 36.5299 25.6702 36.618C25.4577 36.706 25.23 36.7514 25 36.7514C24.77 36.7514 24.5423 36.706 24.3299 36.618C24.1174 36.5299 23.9244 36.4008 23.7619 36.2381L18.5119 30.9881C18.1835 30.6598 17.999 30.2144 17.999 29.75C17.999 29.2856 18.1835 28.8402 18.5119 28.5119C18.8403 28.1835 19.2856 27.999 19.75 27.999C20.2144 27.999 20.6598 28.1835 20.9881 28.5119L25 32.5259L36.0119 21.5119C36.1745 21.3493 36.3675 21.2203 36.5799 21.1323C36.7924 21.0443 37.0201 20.999 37.25 20.999C37.4799 20.999 37.7076 21.0443 37.9201 21.1323C38.1325 21.2203 38.3255 21.3493 38.4881 21.5119C38.6507 21.6745 38.7797 21.8675 38.8677 22.0799C38.9557 22.2924 39.001 22.5201 39.001 22.75C39.001 22.9799 38.9557 23.2076 38.8677 23.4201C38.7797 23.6325 38.6507 23.8255 38.4881 23.9881Z"
        fill="#30C04D" />
</svg>
