<svg fill="none" height="24" viewBox="0 0 25 24" width="25" xmlns="http://www.w3.org/2000/svg">
    <path
        d="M22.3256 5.51906C22.2552 5.43481 22.1672 5.36705 22.0677 5.32056C21.9683 5.27407 21.8598 5.24998 21.75 5.25H6.62625L6.05625 2.11594C6.02485 1.94313 5.9338 1.78681 5.79897 1.67425C5.66414 1.56169 5.49408 1.50003 5.31844 1.5H3C2.80109 1.5 2.61032 1.57902 2.46967 1.71967C2.32902 1.86032 2.25 2.05109 2.25 2.25C2.25 2.44891 2.32902 2.63968 2.46967 2.78033C2.61032 2.92098 2.80109 3 3 3H4.6875L7.08375 16.1522C7.15434 16.5422 7.32671 16.9067 7.58344 17.2087C7.22911 17.5397 6.97336 17.9623 6.84455 18.4298C6.71575 18.8972 6.71892 19.3912 6.85371 19.8569C6.98851 20.3226 7.24966 20.7419 7.60821 21.0683C7.96676 21.3947 8.4087 21.6154 8.88502 21.7059C9.36134 21.7965 9.85344 21.7533 10.3067 21.5813C10.76 21.4092 11.1568 21.115 11.4531 20.7312C11.7494 20.3474 11.9336 19.889 11.9853 19.407C12.037 18.9249 11.9541 18.4379 11.7459 18H16.0041C15.8363 18.3513 15.7495 18.7357 15.75 19.125C15.75 19.6442 15.904 20.1517 16.1924 20.5834C16.4808 21.0151 16.8908 21.3515 17.3705 21.5502C17.8501 21.7489 18.3779 21.8008 18.8871 21.6996C19.3963 21.5983 19.864 21.3483 20.2312 20.9812C20.5983 20.614 20.8483 20.1463 20.9496 19.6371C21.0508 19.1279 20.9989 18.6001 20.8002 18.1205C20.6015 17.6408 20.2651 17.2308 19.8334 16.9424C19.4017 16.654 18.8942 16.5 18.375 16.5H9.29719C9.12155 16.5 8.95149 16.4383 8.81665 16.3257C8.68182 16.2132 8.59077 16.0569 8.55938 15.8841L8.26219 14.25H19.1372C19.6641 14.2499 20.1743 14.0649 20.5788 13.7272C20.9833 13.3896 21.2564 12.9206 21.3506 12.4022L22.4906 6.13406C22.5099 6.02572 22.5051 5.91447 22.4766 5.80818C22.4481 5.7019 22.3966 5.60319 22.3256 5.51906ZM10.5 19.125C10.5 19.3475 10.434 19.565 10.3104 19.75C10.1868 19.935 10.0111 20.0792 9.80552 20.1644C9.59995 20.2495 9.37375 20.2718 9.15552 20.2284C8.93729 20.185 8.73684 20.0778 8.5795 19.9205C8.42217 19.7632 8.31502 19.5627 8.27162 19.3445C8.22821 19.1262 8.25049 18.9 8.33564 18.6945C8.42078 18.4889 8.56498 18.3132 8.74998 18.1896C8.93499 18.066 9.1525 18 9.375 18C9.67337 18 9.95952 18.1185 10.1705 18.3295C10.3815 18.5405 10.5 18.8266 10.5 19.125ZM19.5 19.125C19.5 19.3475 19.434 19.565 19.3104 19.75C19.1868 19.935 19.0111 20.0792 18.8055 20.1644C18.6 20.2495 18.3738 20.2718 18.1555 20.2284C17.9373 20.185 17.7368 20.0778 17.5795 19.9205C17.4222 19.7632 17.315 19.5627 17.2716 19.3445C17.2282 19.1262 17.2505 18.9 17.3356 18.6945C17.4208 18.4889 17.565 18.3132 17.75 18.1896C17.935 18.066 18.1525 18 18.375 18C18.6734 18 18.9595 18.1185 19.1705 18.3295C19.3815 18.5405 19.5 18.8266 19.5 19.125ZM19.875 12.1341C19.8435 12.3074 19.7521 12.464 19.6166 12.5766C19.4812 12.6893 19.3105 12.7506 19.1344 12.75H7.98938L6.89906 6.75H20.8509L19.875 12.1341Z"
        fill="#CCCBCB" />
</svg>
