<svg fill="none" height="24" viewBox="0 0 25 24" width="25" xmlns="http://www.w3.org/2000/svg">
    <g clip-path="url(#clip0_34_144)">
        <path
            d="M21.8434 13.2245C21.5982 13.0354 21.317 12.8983 21.0171 12.8215C20.7171 12.7446 20.4047 12.7295 20.0988 12.7773C21.8594 10.9998 22.75 9.23259 22.75 7.50009C22.75 5.01853 20.7541 3.00009 18.3006 3.00009C17.6496 2.996 17.0056 3.13445 16.4138 3.40573C15.8221 3.67701 15.2968 4.07454 14.875 4.5704C14.4532 4.07454 13.9279 3.67701 13.3362 3.40573C12.7444 3.13445 12.1004 2.996 11.4494 3.00009C8.99594 3.00009 7 5.01853 7 7.50009C7 8.53134 7.30375 9.53352 7.94312 10.5938C7.41947 10.7265 6.94158 10.9987 6.56031 11.3813L4.43969 13.5001H1.75C1.35218 13.5001 0.970644 13.6581 0.68934 13.9394C0.408035 14.2207 0.25 14.6023 0.25 15.0001L0.25 18.7501C0.25 19.1479 0.408035 19.5294 0.68934 19.8107C0.970644 20.0921 1.35218 20.2501 1.75 20.2501H11.5C11.5613 20.2501 11.6224 20.2426 11.6819 20.2276L17.6819 18.7276C17.7201 18.7185 17.7575 18.7059 17.7934 18.6901L21.4375 17.1395L21.4788 17.1207C21.829 16.9457 22.1289 16.6844 22.3502 16.3615C22.5715 16.0385 22.707 15.6646 22.7439 15.2748C22.7807 14.885 22.7178 14.4923 22.5609 14.1336C22.404 13.7749 22.1584 13.462 21.8472 13.2245H21.8434ZM11.4494 4.50009C12.0303 4.49159 12.6005 4.65653 13.0871 4.97384C13.5738 5.29114 13.9547 5.74638 14.1813 6.28134C14.2378 6.4189 14.3339 6.53655 14.4574 6.61935C14.5809 6.70215 14.7263 6.74636 14.875 6.74636C15.0237 6.74636 15.1691 6.70215 15.2926 6.61935C15.4161 6.53655 15.5122 6.4189 15.5687 6.28134C15.7953 5.74638 16.1762 5.29114 16.6629 4.97384C17.1495 4.65653 17.7197 4.49159 18.3006 4.50009C19.8991 4.50009 21.25 5.87353 21.25 7.50009C21.25 9.32915 19.7697 11.3982 16.9694 13.4907L15.9297 13.7298C16.0209 13.3443 16.0238 12.9431 15.9379 12.5564C15.8521 12.1696 15.6798 11.8073 15.4341 11.4966C15.1883 11.1859 14.8754 10.9348 14.5188 10.7622C14.1622 10.5897 13.7712 10.5 13.375 10.5001H9.68875C8.87969 9.40884 8.5 8.44884 8.5 7.50009C8.5 5.87353 9.85094 4.50009 11.4494 4.50009ZM1.75 15.0001H4V18.7501H1.75V15.0001ZM20.8216 15.7698L17.2591 17.2866L11.4062 18.7501H5.5V14.5604L7.62156 12.4398C7.76035 12.2999 7.92555 12.189 8.10758 12.1135C8.28961 12.038 8.48482 11.9995 8.68188 12.0001H13.375C13.6734 12.0001 13.9595 12.1186 14.1705 12.3296C14.3815 12.5406 14.5 12.8267 14.5 13.1251C14.5 13.4235 14.3815 13.7096 14.1705 13.9206C13.9595 14.1316 13.6734 14.2501 13.375 14.2501H10.75C10.5511 14.2501 10.3603 14.3291 10.2197 14.4698C10.079 14.6104 10 14.8012 10 15.0001C10 15.199 10.079 15.3898 10.2197 15.5304C10.3603 15.6711 10.5511 15.7501 10.75 15.7501H13.75C13.8065 15.7499 13.8627 15.7436 13.9178 15.7313L20.1991 14.2866L20.2281 14.2791C20.4199 14.2259 20.6245 14.2455 20.8027 14.3341C20.9809 14.4227 21.12 14.574 21.1933 14.759C21.2667 14.944 21.2689 15.1496 21.1998 15.3362C21.1306 15.5228 20.9949 15.6772 20.8187 15.7698H20.8216Z"
            fill="#CCCBCB" />
    </g>
    <defs>
        <clipPath id="clip0_34_144">
            <rect fill="white" height="24" transform="translate(0.25)" width="24" />
        </clipPath>
    </defs>
</svg>
