<svg fill="none" height="24" viewBox="0 0 25 24" width="25" xmlns="http://www.w3.org/2000/svg">
    <path
        d="M21.3103 10.189L13.8103 2.68899C13.529 2.4079 13.1477 2.25 12.75 2.25C12.3524 2.25 11.971 2.4079 11.6897 2.68899L4.1897 10.189C4.04973 10.3279 3.93878 10.4933 3.8633 10.6755C3.78782 10.8577 3.74931 11.053 3.75001 11.2502V20.2502C3.75001 20.4492 3.82903 20.6399 3.96968 20.7806C4.11033 20.9212 4.3011 21.0002 4.50001 21.0002H10.5C10.6989 21.0002 10.8897 20.9212 11.0303 20.7806C11.171 20.6399 11.25 20.4492 11.25 20.2502V15.0002H14.25V20.2502C14.25 20.4492 14.329 20.6399 14.4697 20.7806C14.6103 20.9212 14.8011 21.0002 15 21.0002H21C21.1989 21.0002 21.3897 20.9212 21.5303 20.7806C21.671 20.6399 21.75 20.4492 21.75 20.2502V11.2502C21.7507 11.053 21.7122 10.8577 21.6367 10.6755C21.5612 10.4933 21.4503 10.3279 21.3103 10.189ZM20.25 19.5002H15.75V14.2502C15.75 14.0513 15.671 13.8606 15.5303 13.7199C15.3897 13.5793 15.1989 13.5002 15 13.5002H10.5C10.3011 13.5002 10.1103 13.5793 9.96968 13.7199C9.82903 13.8606 9.75001 14.0513 9.75001 14.2502V19.5002H5.25001V11.2502L12.75 3.75024L20.25 11.2502V19.5002Z"
        fill="#CCCBCB" />
</svg>
